<svg width="67" height="74" viewBox="0 0 67 74" fill="none" xmlns="http://www.w3.org/2000/svg">
<g filter="url(#filter0_d_91_3)">
<path d="M6.224 42.544C5.41333 43.8667 5.008 45.488 5.008 47.408C5.008 49.2853 5.60533 50.864 6.8 52.144C7.99467 53.424 9.38133 54.064 10.96 54.064C12.5387 54.064 13.7973 53.7867 14.736 53.232C15.6747 52.6347 16.464 51.76 17.104 50.608C18.0427 48.816 18.832 46.3627 19.472 43.248L20.624 37.744C13.072 37.744 8.272 39.344 6.224 42.544ZM52.048 47.152C52.048 49.712 51.5787 51.632 50.64 52.912C49.7013 54.1493 48.1013 54.768 45.84 54.768C44.688 54.768 43.728 54.64 42.96 54.384L43.088 53.744C44.0267 53.9573 44.88 54.064 45.648 54.064C47.7813 54.064 49.232 53.5093 50 52.4C50.768 51.2907 51.152 49.5413 51.152 47.152V15.408C51.152 15.1947 51.216 14.704 51.344 13.936H51.216C51.1733 14.0213 51.1093 14.2773 51.024 14.704C50.9387 15.088 50.8533 15.3867 50.768 15.6L46.736 25.776L35.664 52.336L34.576 52.528C34.704 51.9733 34.768 51.2693 34.768 50.416C34.768 46.4907 33.5307 40.6667 31.056 32.944L29.072 26.736C27.4933 21.744 26.4907 18.2027 26.064 16.112L19.28 48.56C18.256 53.1253 16.8907 56.7733 15.184 59.504C13.136 62.6613 10.064 64.24 5.968 64.24V63.472C9.168 63.472 11.664 62.384 13.456 60.208C15.248 58.0747 16.6773 55.1307 17.744 51.376L18.384 50.032L18.256 49.968C16.8053 53.2107 14.5013 54.832 11.344 54.832C9.25333 54.832 7.52533 54.128 6.16 52.72C4.79467 51.312 4.112 49.5413 4.112 47.408C4.112 40.4533 9.68 36.976 20.816 36.976L25.872 12.848L23.44 12.72C23.184 12.72 22.928 12.72 22.672 12.72C20.4533 12.72 18.6187 13.2747 17.168 14.384C15.76 15.4507 15.056 16.88 15.056 18.672C15.056 19.5253 15.184 20.2293 15.44 20.784L14.928 21.168C14.4587 20.656 14.224 19.7813 14.224 18.544C14.224 17.264 14.672 16.0693 15.568 14.96C16.464 13.808 17.616 13.04 19.024 12.656C19.408 12.5707 19.8987 12.4853 20.496 12.4V12.272L19.024 12.336C14.928 11.824 11.6 10.672 9.04 8.88C6.48 7.04533 5.2 4.42133 5.2 1.008L5.968 0.943996C5.968 2.90666 6.45867 4.61333 7.44 6.064C8.42133 7.472 9.76533 8.58133 11.472 9.392C14.7147 10.928 18.5547 11.7813 22.992 11.952L26.704 12.144V13.424C26.704 15.216 27.792 19.568 29.968 26.48L31.952 32.688C34.384 40.2827 35.6 46.128 35.6 50.224V50.48L36.304 48.816C36.56 48.2187 36.688 47.2587 36.688 45.936C36.688 42.5227 35.3867 36.7413 32.784 28.592L30.8 22.384C28.7947 16.4107 27.8773 13.0187 28.048 12.208H28.88C28.88 12.8907 29.8187 16.1973 31.696 22.128L33.68 28.336C36.1973 36.2293 37.456 42.0107 37.456 45.68V45.936L45.968 25.52C48.912 18.2667 50.6827 13.6373 51.28 11.632L52.048 11.696V47.152ZM53.712 47.152V13.232C53.712 10.672 54.1813 8.77333 55.12 7.536C56.0587 6.256 57.6587 5.616 59.92 5.616C61.072 5.616 62.032 5.744 62.8 6L62.672 6.64C61.7333 6.42666 60.88 6.32 60.112 6.32C57.9787 6.32 56.528 6.87466 55.76 7.984C54.992 9.09333 54.608 10.8427 54.608 13.232V47.152C54.608 49.5413 54.992 51.2907 55.76 52.4C56.528 53.5093 57.9787 54.064 60.112 54.064C60.88 54.064 61.7333 53.9573 62.672 53.744L62.8 54.384C62.032 54.64 61.072 54.768 59.92 54.768C57.6587 54.768 56.0587 54.1493 55.12 52.912C54.1813 51.632 53.712 49.712 53.712 47.152Z" fill="#957902"/>
</g>
<defs>
<filter id="filter0_d_91_3" x="0.112061" y="0.94397" width="66.688" height="72.296" filterUnits="userSpaceOnUse" color-interpolation-filters="sRGB">
<feFlood flood-opacity="0" result="BackgroundImageFix"/>
<feColorMatrix in="SourceAlpha" type="matrix" values="0 0 0 0 0 0 0 0 0 0 0 0 0 0 0 0 0 0 127 0" result="hardAlpha"/>
<feOffset dy="5"/>
<feGaussianBlur stdDeviation="2"/>
<feComposite in2="hardAlpha" operator="out"/>
<feColorMatrix type="matrix" values="0 0 0 0 0 0 0 0 0 0 0 0 0 0 0 0 0 0 0.25 0"/>
<feBlend mode="normal" in2="BackgroundImageFix" result="effect1_dropShadow_91_3"/>
<feBlend mode="normal" in="SourceGraphic" in2="effect1_dropShadow_91_3" result="shape"/>
</filter>
</defs>
</svg>
