<svg width="129" height="93" viewBox="0 0 129 93" fill="none" xmlns="http://www.w3.org/2000/svg">
<g filter="url(#filter0_d_91_4)">
<path d="M38.224 49.544C37.4133 50.8667 37.008 52.488 37.008 54.408C37.008 56.2853 37.6053 57.864 38.8 59.144C39.9947 60.424 41.3813 61.064 42.96 61.064C44.5387 61.064 45.7973 60.7867 46.736 60.232C47.6747 59.6347 48.464 58.76 49.104 57.608C50.0427 55.816 50.832 53.3627 51.472 50.248L52.624 44.744C45.072 44.744 40.272 46.344 38.224 49.544ZM84.048 54.152C84.048 56.712 83.5787 58.632 82.64 59.912C81.7013 61.1493 80.1013 61.768 77.84 61.768C76.688 61.768 75.728 61.64 74.96 61.384L75.088 60.744C76.0267 60.9573 76.88 61.064 77.648 61.064C79.7813 61.064 81.232 60.5093 82 59.4C82.768 58.2907 83.152 56.5413 83.152 54.152V22.408C83.152 22.1947 83.216 21.704 83.344 20.936H83.216C83.1733 21.0213 83.1093 21.2773 83.024 21.704C82.9387 22.088 82.8533 22.3867 82.768 22.6L78.736 32.776L67.664 59.336L66.576 59.528C66.704 58.9733 66.768 58.2693 66.768 57.416C66.768 53.4907 65.5307 47.6667 63.056 39.944L61.072 33.736C59.4933 28.744 58.4907 25.2027 58.064 23.112L51.28 55.56C50.256 60.1253 48.8907 63.7733 47.184 66.504C45.136 69.6613 42.064 71.24 37.968 71.24V70.472C41.168 70.472 43.664 69.384 45.456 67.208C47.248 65.0747 48.6773 62.1307 49.744 58.376L50.384 57.032L50.256 56.968C48.8053 60.2107 46.5013 61.832 43.344 61.832C41.2533 61.832 39.5253 61.128 38.16 59.72C36.7947 58.312 36.112 56.5413 36.112 54.408C36.112 47.4533 41.68 43.976 52.816 43.976L57.872 19.848L55.44 19.72C55.184 19.72 54.928 19.72 54.672 19.72C52.4533 19.72 50.6187 20.2747 49.168 21.384C47.76 22.4507 47.056 23.88 47.056 25.672C47.056 26.5253 47.184 27.2293 47.44 27.784L46.928 28.168C46.4587 27.656 46.224 26.7813 46.224 25.544C46.224 24.264 46.672 23.0693 47.568 21.96C48.464 20.808 49.616 20.04 51.024 19.656C51.408 19.5707 51.8987 19.4853 52.496 19.4V19.272L51.024 19.336C46.928 18.824 43.6 17.672 41.04 15.88C38.48 14.0453 37.2 11.4213 37.2 8.008L37.968 7.944C37.968 9.90666 38.4587 11.6133 39.44 13.064C40.4213 14.472 41.7653 15.5813 43.472 16.392C46.7147 17.928 50.5547 18.7813 54.992 18.952L58.704 19.144V20.424C58.704 22.216 59.792 26.568 61.968 33.48L63.952 39.688C66.384 47.2827 67.6 53.128 67.6 57.224V57.48L68.304 55.816C68.56 55.2187 68.688 54.2587 68.688 52.936C68.688 49.5227 67.3867 43.7413 64.784 35.592L62.8 29.384C60.7947 23.4107 59.8773 20.0187 60.048 19.208H60.88C60.88 19.8907 61.8187 23.1973 63.696 29.128L65.68 35.336C68.1973 43.2293 69.456 49.0107 69.456 52.68V52.936L77.968 32.52C80.912 25.2667 82.6827 20.6373 83.28 18.632L84.048 18.696V54.152ZM85.712 54.152V20.232C85.712 17.672 86.1813 15.7733 87.12 14.536C88.0587 13.256 89.6587 12.616 91.92 12.616C93.072 12.616 94.032 12.744 94.8 13L94.672 13.64C93.7333 13.4267 92.88 13.32 92.112 13.32C89.9787 13.32 88.528 13.8747 87.76 14.984C86.992 16.0933 86.608 17.8427 86.608 20.232V54.152C86.608 56.5413 86.992 58.2907 87.76 59.4C88.528 60.5093 89.9787 61.064 92.112 61.064C92.88 61.064 93.7333 60.9573 94.672 60.744L94.8 61.384C94.032 61.64 93.072 61.768 91.92 61.768C89.6587 61.768 88.0587 61.1493 87.12 59.912C86.1813 58.632 85.712 56.712 85.712 54.152Z" fill="#957902"/>
</g>
<path d="M3.24609 87.6289C3.23047 87.668 3.22266 87.6992 3.22266 87.7227C3.19141 87.8398 3.17578 87.9141 3.17578 87.9453C3.17578 87.9688 3.17188 87.9922 3.16406 88.0156C3.10156 88.125 3.02344 88.1797 2.92969 88.1797H2.87109C2.82422 88.1719 2.78125 88.1445 2.74219 88.0977C2.70312 88.043 2.69531 87.9609 2.71875 87.8516L2.75391 87.6758C2.48047 87.707 2.22266 87.7344 1.98047 87.7578C0.910156 87.875 0.339844 87.9414 0.269531 87.957H0.246094C0.183594 87.957 0.128906 87.9375 0.0820312 87.8984C0.0429688 87.8594 0.0195312 87.8086 0.0117188 87.7461C0.00390625 87.6836 0.0195312 87.6289 0.0585938 87.582C0.0976562 87.5273 0.148438 87.4961 0.210938 87.4883C0.28125 87.4727 0.855469 87.4062 1.93359 87.2891C2.23047 87.2578 2.54297 87.2266 2.87109 87.1953C2.94141 86.8906 3.03516 86.4961 3.15234 86.0117C3.30859 85.4414 3.62109 84.4609 4.08984 83.0703C4.56641 81.6797 5.08594 80.1875 5.64844 78.5938C6.21875 76.9922 6.71875 75.5977 7.14844 74.4102C7.57812 73.2148 7.82422 72.5352 7.88672 72.3711C7.91016 72.3086 7.94922 72.2656 8.00391 72.2422C8.05859 72.2109 8.11719 72.207 8.17969 72.2305C8.24219 72.2539 8.28516 72.293 8.30859 72.3477C8.33984 72.4023 8.34375 72.4609 8.32031 72.5234C8.28906 72.6094 8.0625 73.2383 7.64062 74.4102C7.21875 75.582 6.71875 76.9805 6.14062 78.6055C5.57031 80.2227 5.04297 81.7383 4.55859 83.1523C4.07422 84.5664 3.75781 85.5586 3.60938 86.1289C3.50781 86.5586 3.42578 86.8984 3.36328 87.1484C4.08984 87.0781 4.89453 87.0117 5.77734 86.9492C7.26172 86.8398 8.66406 86.793 9.98438 86.8086C11.7422 86.8477 12.8242 86.8711 13.2305 86.8789H13.6523C13.668 86.8867 13.6836 86.8906 13.6992 86.8906H13.7227C13.8789 86.9062 13.957 86.9844 13.957 87.125C13.9492 87.1875 13.9219 87.2422 13.875 87.2891C13.8281 87.3359 13.7734 87.3594 13.7109 87.3594C13.7031 87.3594 13.6914 87.3594 13.6758 87.3594C13.6602 87.3594 13.6328 87.3594 13.5938 87.3594C13.5547 87.3516 13.4961 87.3477 13.418 87.3477C13.3398 87.3477 13.2383 87.3477 13.1133 87.3477C12.9883 87.3398 12.832 87.3359 12.6445 87.3359C12.4648 87.3281 12.2461 87.3242 11.9883 87.3242C11.7383 87.3164 11.4453 87.3086 11.1094 87.3008C10.7734 87.293 10.3945 87.2852 9.97266 87.2773C8.66797 87.2617 7.27734 87.3086 5.80078 87.418C4.86328 87.4883 4.01172 87.5586 3.24609 87.6289ZM12.7266 84.1016C12.6484 84.1016 12.5781 84.0898 12.5156 84.0664C12.4531 84.043 12.3867 83.9844 12.3164 83.8906C12.2461 83.7891 12.2109 83.6328 12.2109 83.4219C12.2422 82.9297 12.4531 82.3711 12.8438 81.7461C13.2266 81.1133 13.6836 80.6875 14.2148 80.4688C14.3945 80.3984 14.6016 80.3828 14.8359 80.4219C15.0703 80.4531 15.3125 80.6016 15.5625 80.8672C15.7188 80.6641 15.8438 80.4961 15.9375 80.3633C16.0312 80.2305 16.082 80.1641 16.0898 80.1641C16.1211 80.1094 16.1641 80.0781 16.2188 80.0703C16.2812 80.0547 16.3398 80.0625 16.3945 80.0938C16.4492 80.125 16.4844 80.168 16.5 80.2227C16.5156 80.2773 16.5117 80.332 16.4883 80.3867C16.1367 81.2383 15.9492 81.8789 15.9258 82.3086C15.9102 82.7383 15.9844 82.9961 16.1484 83.082C16.3828 83.2148 16.7695 83.1172 17.3086 82.7891C17.8555 82.4531 18.4492 81.8984 19.0898 81.125C19.1289 81.0703 19.1797 81.0391 19.2422 81.0312C19.3047 81.0234 19.3633 81.043 19.418 81.0898C19.4648 81.1289 19.4922 81.1797 19.5 81.2422C19.5078 81.3047 19.4922 81.3633 19.4531 81.418C18.2734 82.832 17.2461 83.5625 16.3711 83.6094C16.1914 83.6094 16.0352 83.5664 15.9023 83.4805C15.7227 83.3945 15.5898 83.207 15.5039 82.918C15.418 82.6289 15.4414 82.1953 15.5742 81.6172C15.1836 82.1172 14.7695 82.5938 14.332 83.0469C13.6211 83.7578 13.0859 84.1094 12.7266 84.1016ZM12.7148 83.6328C12.7148 83.6328 12.7305 83.6328 12.7617 83.6328C12.7852 83.6328 12.8281 83.6211 12.8906 83.5977C12.9531 83.5664 13.0352 83.5195 13.1367 83.457C13.2305 83.3945 13.3477 83.3047 13.4883 83.1875C13.6289 83.0625 13.7969 82.9023 13.9922 82.707C14.4453 82.2461 14.8711 81.7578 15.2695 81.2422C15.2539 81.2266 15.2383 81.2109 15.2227 81.1953C14.9961 80.9297 14.7461 80.8242 14.4727 80.8789C14.1211 80.9727 13.7852 81.2344 13.4648 81.6641C13.1445 82.0859 12.9102 82.5312 12.7617 83C12.6992 83.2188 12.6719 83.3789 12.6797 83.4805C12.6875 83.5742 12.6992 83.625 12.7148 83.6328ZM30.8789 89.832C30.8789 89.832 30.875 89.832 30.8672 89.832C30.8047 89.832 30.75 89.8086 30.7031 89.7617C30.6641 89.7148 30.6445 89.6562 30.6445 89.5859C30.6367 89.5312 30.6953 89.0273 30.8203 88.0742C30.9531 87.1211 31.2344 85.8008 31.6641 84.1133C32.1484 82.4414 32.8281 80.4297 33.7031 78.0781C34.1797 76.7734 34.6055 75.5664 34.9805 74.457C35.3633 73.3398 35.5547 72.6094 35.5547 72.2656C35.5547 72.1562 35.5469 72.0938 35.5312 72.0781C35.4844 72.0781 35.375 72.1445 35.2031 72.2773C35.0391 72.4102 34.8086 72.6523 34.5117 73.0039C33.957 73.668 33.4023 74.4844 32.8477 75.4531C32.2773 76.4609 31.5 77.9102 30.5156 79.8008C29.4766 81.793 28.6016 83.4336 27.8906 84.7227C27.1875 86.0039 26.707 86.7852 26.4492 87.0664C26.3867 87.1211 26.3281 87.1562 26.2734 87.1719C26.2266 87.1875 26.1836 87.1914 26.1445 87.1836C26.1133 87.168 26.0898 87.1562 26.0742 87.1484C25.9023 87.0547 25.875 86.7539 25.9922 86.2461C26.0625 85.8867 26.1875 85.375 26.3672 84.7109C26.7109 83.3984 27.1211 81.9375 27.5977 80.3281C27.9258 79.1797 28.2227 78.1289 28.4883 77.1758C28.7539 76.2148 28.8867 75.6406 28.8867 75.4531C28.8867 75.2656 28.8789 75.1523 28.8633 75.1133C28.8164 75.1367 28.7305 75.2188 28.6055 75.3594C28.4805 75.5 28.3008 75.7422 28.0664 76.0859C27.832 76.4297 27.5273 76.918 27.1523 77.5508C26.6523 78.4336 26.1523 79.4258 25.6523 80.5273C25.1602 81.6289 24.7148 82.6562 24.3164 83.6094C23.6758 85.1484 23.2891 85.9766 23.1562 86.0938C23.0547 86.1797 22.9492 86.1953 22.8398 86.1406C22.7539 86.0859 22.7188 85.9961 22.7344 85.8711C22.75 85.7461 22.7969 85.5469 22.875 85.2734C22.9844 84.9219 23.1445 84.418 23.3555 83.7617C23.7148 82.6602 24.2227 81.1523 24.8789 79.2383C25.4414 77.6055 25.9453 76.1523 26.3906 74.8789C26.8359 73.5977 27.0859 72.8789 27.1406 72.7227C27.1406 72.7148 27.1406 72.7109 27.1406 72.7109C27.1641 72.6484 27.2031 72.6055 27.2578 72.582C27.3203 72.5508 27.3828 72.5469 27.4453 72.5703C27.5078 72.5938 27.5508 72.6328 27.5742 72.6875C27.6055 72.7422 27.6094 72.8008 27.5859 72.8633C27.0391 74.4258 26.457 76.0977 25.8398 77.8789C25.2305 79.6523 24.6836 81.2539 24.1992 82.6836C24.9883 80.7773 25.8398 78.9883 26.7539 77.3164C27.3008 76.3633 27.7461 75.6719 28.0898 75.2422C28.4648 74.7656 28.7695 74.5664 29.0039 74.6445C29.1211 74.6758 29.2031 74.7461 29.25 74.8555C29.3047 74.957 29.3359 75.0664 29.3438 75.1836C29.3516 75.293 29.3555 75.3828 29.3555 75.4531C29.3555 75.6641 29.2383 76.1992 29.0039 77.0586C28.7773 77.9102 28.457 79.043 28.043 80.457C27.7383 81.5039 27.4336 82.5742 27.1289 83.668C26.8242 84.7539 26.6055 85.6133 26.4727 86.2461C26.8789 85.5977 27.418 84.6484 28.0898 83.3984C28.7617 82.1406 29.4336 80.8672 30.1055 79.5781C31.0898 77.6875 31.8672 76.2344 32.4375 75.2188C33.0312 74.2031 33.6172 73.3477 34.1953 72.6523C34.4844 72.3086 34.7266 72.0625 34.9219 71.9141C35.1172 71.7578 35.2734 71.6641 35.3906 71.6328C35.5078 71.6016 35.6016 71.5977 35.6719 71.6211C35.7578 71.6367 35.8359 71.6914 35.9062 71.7852C35.9844 71.8789 36.0234 72.0391 36.0234 72.2656C36.0234 72.6484 35.8398 73.3828 35.4727 74.4688C35.1055 75.5547 34.6641 76.8125 34.1484 78.2422C33.2734 80.5859 32.5977 82.582 32.1211 84.2305C31.6914 85.9023 31.4141 87.2109 31.2891 88.1562C31.1641 89.1016 31.1055 89.5859 31.1133 89.6094C31.1133 89.6797 31.0898 89.7344 31.043 89.7734C30.9961 89.8125 30.9414 89.832 30.8789 89.832ZM34.8281 83.9727C34.6875 83.9727 34.5664 83.9375 34.4648 83.8672C34.3398 83.7578 34.2695 83.625 34.2539 83.4688C34.2305 83.3047 34.2344 83.1484 34.2656 83C34.2891 82.8438 34.3164 82.7227 34.3477 82.6367C34.5195 82.0586 34.8828 81.2734 35.4375 80.2812C35.4688 80.2266 35.5156 80.1914 35.5781 80.1758C35.6406 80.1523 35.6992 80.1562 35.7539 80.1875C35.8086 80.2266 35.8438 80.2773 35.8594 80.3398C35.8828 80.3945 35.8789 80.4531 35.8477 80.5156C35.6992 80.7734 35.5664 81.0156 35.4492 81.2422C35.3398 81.4609 35.2422 81.6602 35.1562 81.8398C35.0781 82.0195 35.0117 82.1797 34.957 82.3203C34.9023 82.4609 34.8594 82.5898 34.8281 82.707C34.7891 82.8164 34.7617 82.9141 34.7461 83C34.7227 83.0781 34.7109 83.1484 34.7109 83.2109C34.7031 83.2656 34.7031 83.3125 34.7109 83.3516C34.7109 83.3828 34.7148 83.4102 34.7227 83.4336C34.7305 83.4492 34.7383 83.4648 34.7461 83.4805C34.7461 83.4883 34.7461 83.4922 34.7461 83.4922C34.7461 83.4922 34.7539 83.4961 34.7695 83.5039C34.7773 83.5039 34.793 83.5039 34.8164 83.5039C34.832 83.5039 34.8594 83.5039 34.8984 83.5039C34.9375 83.4961 34.9844 83.4844 35.0391 83.4688C35.0938 83.4531 35.1562 83.4297 35.2266 83.3984C35.3047 83.3594 35.3906 83.3125 35.4844 83.2578C35.5859 83.2031 35.6992 83.1328 35.8242 83.0469C36.4648 82.6094 37.1914 81.9805 38.0039 81.1602C38.0508 81.1133 38.1055 81.0898 38.168 81.0898C38.2305 81.0898 38.2891 81.1094 38.3438 81.1484C38.3906 81.2031 38.4141 81.2617 38.4141 81.3242C38.4141 81.3867 38.3906 81.4414 38.3438 81.4883C38.0703 81.7695 37.7188 82.1016 37.2891 82.4844C36.8672 82.8672 36.4336 83.207 35.9883 83.5039C35.543 83.8008 35.1562 83.957 34.8281 83.9727ZM36.1641 79.4844C36.125 79.4844 36.0898 79.4766 36.0586 79.4609C35.9961 79.4297 35.9531 79.3867 35.9297 79.332C35.9141 79.2695 35.9219 79.207 35.9531 79.1445L36.1172 78.8281C36.1484 78.7734 36.1914 78.7383 36.2461 78.7227C36.3086 78.6992 36.3672 78.6992 36.4219 78.7227C36.4844 78.7539 36.5234 78.8008 36.5391 78.8633C36.5625 78.9258 36.5586 78.9844 36.5273 79.0391L36.375 79.3555C36.3203 79.4414 36.25 79.4844 36.1641 79.4844ZM38.4375 80.1523L38.4727 80.082C38.5039 80.0352 38.543 80 38.5898 79.9766C38.6445 79.9531 38.7031 79.9531 38.7656 79.9766C38.8281 80 38.8711 80.0391 38.8945 80.0938C38.918 80.1328 38.9258 80.1758 38.918 80.2227V80.2461C38.9102 80.2539 38.9062 80.2617 38.9062 80.2695L38.332 81.7578C38.582 81.375 38.7891 81.0859 38.9531 80.8906C39.1172 80.6875 39.25 80.5508 39.3516 80.4805C39.4609 80.4102 39.5547 80.3789 39.6328 80.3867C39.7656 80.3789 39.8711 80.4336 39.9492 80.5508L39.9609 80.5742C40.1719 80.918 40.3594 81.168 40.5234 81.3242C40.6953 81.4805 40.9062 81.5273 41.1562 81.4648C41.4688 81.3711 41.6836 81.2969 41.8008 81.2422C41.9258 81.1875 41.9883 81.1602 41.9883 81.1602C42.1289 81.0977 42.2266 81.1328 42.2812 81.2656C42.3438 81.3906 42.3398 81.4805 42.2695 81.5352C42.2539 81.5508 42.1719 81.5938 42.0234 81.6641C41.8828 81.7266 41.6367 81.8086 41.2852 81.9102C41.1602 81.9492 41.043 81.9688 40.9336 81.9688C40.6289 81.9531 40.3711 81.8398 40.1602 81.6289C39.957 81.4102 39.7734 81.1602 39.6094 80.8789C39.5469 80.9102 39.4102 81.0625 39.1992 81.3359C38.9883 81.6094 38.6719 82.0977 38.25 82.8008C37.9688 83.293 37.7305 83.7266 37.5352 84.1016C37.332 84.4766 37.2266 84.6758 37.2188 84.6992C37.1641 84.7852 37.0938 84.8281 37.0078 84.8281C36.9766 84.8281 36.9453 84.8203 36.9141 84.8047C36.8516 84.7812 36.8086 84.7422 36.7852 84.6875C36.7617 84.625 36.7617 84.5664 36.7852 84.5117L38.4375 80.1523ZM41.4844 84.1016C41.4062 84.1016 41.3359 84.0898 41.2734 84.0664C41.2109 84.043 41.1445 83.9844 41.0742 83.8906C41.0039 83.7891 40.9688 83.6328 40.9688 83.4219C41 82.9297 41.2109 82.3711 41.6016 81.7461C41.9844 81.1133 42.4414 80.6875 42.9727 80.4688C43.1523 80.3984 43.3594 80.3828 43.5938 80.4219C43.8281 80.4531 44.0703 80.6016 44.3203 80.8672C44.4766 80.6641 44.6016 80.4961 44.6953 80.3633C44.7891 80.2305 44.8398 80.1641 44.8477 80.1641C44.8789 80.1094 44.9219 80.0781 44.9766 80.0703C45.0391 80.0547 45.0977 80.0625 45.1523 80.0938C45.207 80.125 45.2422 80.168 45.2578 80.2227C45.2734 80.2773 45.2695 80.332 45.2461 80.3867C44.8945 81.2383 44.707 81.8789 44.6836 82.3086C44.668 82.7383 44.7422 82.9961 44.9062 83.082C45.1406 83.2148 45.5273 83.1172 46.0664 82.7891C46.6133 82.4531 47.207 81.8984 47.8477 81.125C47.8867 81.0703 47.9375 81.0391 48 81.0312C48.0625 81.0234 48.1211 81.043 48.1758 81.0898C48.2227 81.1289 48.25 81.1797 48.2578 81.2422C48.2656 81.3047 48.25 81.3633 48.2109 81.418C47.0312 82.832 46.0039 83.5625 45.1289 83.6094C44.9492 83.6094 44.793 83.5664 44.6602 83.4805C44.4805 83.3945 44.3477 83.207 44.2617 82.918C44.1758 82.6289 44.1992 82.1953 44.332 81.6172C43.9414 82.1172 43.5273 82.5938 43.0898 83.0469C42.3789 83.7578 41.8438 84.1094 41.4844 84.1016ZM41.4727 83.6328C41.4727 83.6328 41.4883 83.6328 41.5195 83.6328C41.543 83.6328 41.5859 83.6211 41.6484 83.5977C41.7109 83.5664 41.793 83.5195 41.8945 83.457C41.9883 83.3945 42.1055 83.3047 42.2461 83.1875C42.3867 83.0625 42.5547 82.9023 42.75 82.707C43.2031 82.2461 43.6289 81.7578 44.0273 81.2422C44.0117 81.2266 43.9961 81.2109 43.9805 81.1953C43.7539 80.9297 43.5039 80.8242 43.2305 80.8789C42.8789 80.9727 42.543 81.2344 42.2227 81.6641C41.9023 82.0859 41.668 82.5312 41.5195 83C41.457 83.2188 41.4297 83.3789 41.4375 83.4805C41.4453 83.5742 41.457 83.625 41.4727 83.6328ZM44.2969 91.3672C44.1484 91.3672 44.0195 91.3281 43.9102 91.25C43.7695 91.1719 43.6758 91.0117 43.6289 90.7695C43.5742 90.5273 43.6367 90.1602 43.8164 89.668C44.0508 89.0586 44.5117 88.2812 45.1992 87.3359C45.8867 86.3906 46.8125 85.4023 47.9766 84.3711C48.5859 83.8398 49.1797 83.3711 49.7578 82.9648C49.9219 82.5977 50.0703 82.2461 50.2031 81.9102C49.5156 82.6914 48.9258 83.2891 48.4336 83.7031C47.7695 84.2734 47.2773 84.5039 46.957 84.3945C46.8867 84.3789 46.8125 84.332 46.7344 84.2539C46.6562 84.1758 46.6094 84.043 46.5938 83.8555C46.5781 83.3477 46.7852 82.7344 47.2148 82.0156C47.6367 81.2891 48.125 80.7656 48.6797 80.4453C49.1953 80.1953 49.6484 80.2422 50.0391 80.5859C50.0938 80.6328 50.1211 80.6875 50.1211 80.75C50.1289 80.8125 50.1094 80.8672 50.0625 80.9141C50.0156 80.9688 49.9609 81 49.8984 81.0078C49.8359 81.0078 49.7812 80.9844 49.7344 80.9375C49.5 80.7266 49.2188 80.7031 48.8906 80.8672C48.4062 81.1484 47.9805 81.6133 47.6133 82.2617C47.2383 82.9102 47.0547 83.4297 47.0625 83.8203C47.0703 83.8984 47.082 83.9414 47.0977 83.9492C47.0977 83.9492 47.1133 83.9492 47.1445 83.9492C47.168 83.9492 47.2109 83.9414 47.2734 83.9258C47.3281 83.9023 47.4023 83.8672 47.4961 83.8203C47.5898 83.7656 47.707 83.6875 47.8477 83.5859C47.9805 83.4844 48.1367 83.3516 48.3164 83.1875C48.5039 83.0156 48.7188 82.8086 48.9609 82.5664C49.2031 82.3242 49.4766 82.0312 49.7812 81.6875C50.0859 81.3438 50.4219 80.9492 50.7891 80.5039C50.8281 80.457 50.875 80.4297 50.9297 80.4219C50.9844 80.4141 51.0391 80.4219 51.0938 80.4453C51.1406 80.4766 51.1719 80.5195 51.1875 80.5742C51.2109 80.6289 51.2109 80.6836 51.1875 80.7383C50.9844 81.2461 50.75 81.8203 50.4844 82.4609C51.1797 82.0078 51.75 81.6641 52.1953 81.4297C52.6406 81.1875 52.8711 81.0625 52.8867 81.0547C52.9492 81.0234 53.0078 81.0195 53.0625 81.043C53.125 81.0664 53.1719 81.1055 53.2031 81.1602C53.2344 81.2227 53.2383 81.2852 53.2148 81.3477C53.1914 81.4023 53.1523 81.4453 53.0977 81.4766C53.0664 81.4844 52.7734 81.6406 52.2188 81.9453C51.6641 82.25 50.9727 82.6875 50.1445 83.2578C49.582 84.5859 48.9258 85.9258 48.1758 87.2773C47.4258 88.6211 46.6016 89.7344 45.7031 90.6172C45.1797 91.1094 44.7109 91.3594 44.2969 91.3672ZM49.3828 83.8203C49.0156 84.1016 48.6484 84.4023 48.2812 84.7227C47.1562 85.7305 46.2617 86.6914 45.5977 87.6055C44.9258 88.5117 44.4766 89.2578 44.25 89.8438C44.0469 90.4375 44.0195 90.7773 44.168 90.8633C44.2461 90.918 44.3945 90.9023 44.6133 90.8164C44.8242 90.7383 45.082 90.5586 45.3867 90.2773C46.1602 89.5195 46.8867 88.5547 47.5664 87.3828C48.2383 86.2109 48.8438 85.0234 49.3828 83.8203ZM53.4727 84.0547C52.8242 84.0469 52.4336 83.7344 52.3008 83.1172C52.2148 82.6094 52.3203 82.0625 52.6172 81.4766C52.9375 80.8672 53.3398 80.4805 53.8242 80.3164C54.0586 80.2461 54.25 80.2539 54.3984 80.3398C54.5469 80.418 54.6445 80.5312 54.6914 80.6797C54.7539 80.8828 54.7344 81.0938 54.6328 81.3125C54.5391 81.5312 54.3711 81.6875 54.1289 81.7812C53.9961 81.8203 53.8555 81.832 53.707 81.8164C53.5664 81.8008 53.4336 81.7773 53.3086 81.7461C53.1914 81.707 53.1055 81.6758 53.0508 81.6523C52.793 82.1445 52.6953 82.6055 52.7578 83.0352C52.8359 83.4336 53.1016 83.6172 53.5547 83.5859C54.6016 83.5234 55.668 82.7188 56.7539 81.1719C56.8008 81.1172 56.8516 81.0859 56.9062 81.0781C56.9688 81.0625 57.0273 81.0742 57.082 81.1133C57.1367 81.1523 57.168 81.2031 57.1758 81.2656C57.1914 81.3281 57.1797 81.3867 57.1406 81.4414C56.7656 82.0117 56.2812 82.5703 55.6875 83.1172C55.0938 83.6562 54.3945 83.9688 53.5898 84.0547C53.5508 84.0547 53.5117 84.0547 53.4727 84.0547ZM53.3203 81.2422C53.4297 81.2812 53.5469 81.3125 53.6719 81.3359C53.7969 81.3516 53.8984 81.3516 53.9766 81.3359C54.0938 81.2891 54.1758 81.2148 54.2227 81.1133C54.2695 81.0039 54.2773 80.9102 54.2461 80.832C54.2461 80.8164 54.2383 80.8008 54.2227 80.7852C54.207 80.7617 54.1797 80.7461 54.1406 80.7383C54.1016 80.7305 54.043 80.7383 53.9648 80.7617C53.7227 80.8477 53.5078 81.0078 53.3203 81.2422ZM62.2266 88.5312C62.2031 88.5391 62.1797 88.543 62.1562 88.543H62.1328L60.668 88.6836H60.6445C60.582 88.6836 60.5273 88.6641 60.4805 88.625C60.4414 88.5859 60.418 88.5352 60.4102 88.4727C60.4023 88.4102 60.418 88.3555 60.457 88.3086C60.4961 88.2617 60.5508 88.2344 60.6211 88.2266L61.9922 88.0859C62.1094 87.8047 62.4141 87.0781 62.9062 85.9062C63.5078 84.4609 64.1953 82.7734 64.9688 80.8438C65.6406 79.1875 66.1758 77.8398 66.5742 76.8008C66.9727 75.7539 67.2656 74.9492 67.4531 74.3867C67.6484 73.8164 67.7734 73.418 67.8281 73.1914C67.8906 72.957 67.918 72.8203 67.9102 72.7812C67.9102 72.7656 67.9062 72.7539 67.8984 72.7461C67.8906 72.7305 67.8828 72.7227 67.875 72.7227C67.7656 72.6836 67.5117 72.8203 67.1133 73.1328C66.7148 73.4375 66.1914 73.9727 65.543 74.7383C64.9023 75.5117 64.3203 76.3164 63.7969 77.1523C63.2812 77.9883 62.8945 78.7656 62.6367 79.4844C62.3789 80.1953 62.3242 80.7461 62.4727 81.1367C62.4961 81.1992 62.4961 81.2617 62.4727 81.3242C62.4492 81.3789 62.4102 81.418 62.3555 81.4414C62.293 81.4727 62.2305 81.4766 62.168 81.4531C62.1133 81.4297 62.0742 81.3867 62.0508 81.3242C61.7617 80.6445 61.9844 79.5742 62.7188 78.1133C63.3516 76.8789 64.1719 75.6523 65.1797 74.4336C65.4297 74.1289 65.7266 73.8008 66.0703 73.4492C66.4141 73.0977 66.7539 72.8047 67.0898 72.5703C67.4336 72.3281 67.7305 72.2266 67.9805 72.2656C68.0352 72.2734 68.1016 72.3086 68.1797 72.3711C68.2578 72.4258 68.3203 72.5273 68.3672 72.6758C68.375 72.6992 68.3789 72.7383 68.3789 72.793C68.3789 72.8398 68.3672 72.9258 68.3438 73.0508C68.3203 73.1758 68.2734 73.3555 68.2031 73.5898C68.1406 73.8242 68.0391 74.1367 67.8984 74.5273C67.7656 74.918 67.5898 75.4023 67.3711 75.9805C67.1602 76.5586 66.8945 77.2578 66.5742 78.0781C66.2617 78.8906 65.8867 79.8398 65.4492 80.9258C64.6602 82.8711 63.9609 84.5781 63.3516 86.0469C62.9531 87 62.6758 87.6641 62.5195 88.0391L63.6211 87.9219C63.6836 87.9141 63.7383 87.9297 63.7852 87.9688C63.832 88.0078 63.8594 88.0625 63.8672 88.1328C63.875 88.1953 63.8594 88.2539 63.8203 88.3086C63.7812 88.3555 63.7305 88.3828 63.668 88.3906L62.2266 88.5312ZM66.0352 84.8398C66.0039 84.8398 65.9688 84.832 65.9297 84.8164C65.875 84.7852 65.8398 84.7422 65.8242 84.6875C65.8008 84.6328 65.8008 84.5742 65.8242 84.5117L67.793 80C67.8164 79.9453 67.8555 79.9062 67.9102 79.8828C67.9727 79.8594 68.0352 79.8594 68.0977 79.8828C68.1602 79.9062 68.2031 79.9492 68.2266 80.0117C68.25 80.0664 68.2461 80.125 68.2148 80.1875L67.3711 82.1328C67.6523 81.7422 67.9102 81.4375 68.1445 81.2188C68.4258 80.9531 68.6562 80.7695 68.8359 80.668C69.0156 80.5586 69.1602 80.5 69.2695 80.4922C69.3789 80.4766 69.4648 80.4844 69.5273 80.5156C69.582 80.5391 69.6406 80.5859 69.7031 80.6562C69.7656 80.7266 69.7969 80.8438 69.7969 81.0078C69.7969 81.0625 69.793 81.1289 69.7852 81.207C69.7695 81.4336 69.7734 81.7148 69.7969 82.0508C69.8203 82.3867 69.9102 82.6289 70.0664 82.7773C70.0742 82.7852 70.0898 82.7969 70.1133 82.8125C70.1445 82.8281 70.1836 82.8398 70.2305 82.8477C70.2852 82.8555 70.3555 82.8477 70.4414 82.8242C70.6992 82.7539 70.9648 82.6328 71.2383 82.4609C71.5117 82.2891 71.7617 82.1055 71.9883 81.9102C72.2227 81.7148 72.4102 81.5469 72.5508 81.4062C72.6914 81.2578 72.7656 81.1797 72.7734 81.1719C72.8203 81.125 72.875 81.1016 72.9375 81.1016C73 81.0938 73.0547 81.1133 73.1016 81.1602C73.1484 81.207 73.1719 81.2617 73.1719 81.3242C73.1797 81.3867 73.1602 81.4414 73.1133 81.4883C73.0898 81.5273 72.9492 81.6719 72.6914 81.9219C72.4336 82.1641 72.1133 82.4219 71.7305 82.6953C71.3477 82.9688 70.9531 83.1641 70.5469 83.2812C70.3594 83.3203 70.1992 83.3242 70.0664 83.293C69.9414 83.2539 69.8438 83.2031 69.7734 83.1406C69.5312 82.9219 69.3906 82.6172 69.3516 82.2266C69.3125 81.8359 69.3008 81.4922 69.3164 81.1953C69.3164 81.1953 69.3164 81.1914 69.3164 81.1836C69.3242 81.1133 69.3281 81.0547 69.3281 81.0078C69.3281 80.9844 69.3242 80.9688 69.3164 80.9609C69.2852 80.9609 69.1992 81 69.0586 81.0781C68.9258 81.1562 68.7266 81.3164 68.4609 81.5586C68.2656 81.7461 68.043 82.0117 67.793 82.3555C67.543 82.6914 67.3008 83.0391 67.0664 83.3984C66.832 83.7578 66.6406 84.0664 66.4922 84.3242C66.3359 84.5742 66.25 84.707 66.2344 84.7227C66.1797 84.8008 66.1133 84.8398 66.0352 84.8398ZM71.543 84.8398C71.5117 84.8398 71.4766 84.832 71.4375 84.8164C71.3828 84.7852 71.3477 84.7422 71.332 84.6875C71.3086 84.6328 71.3086 84.5742 71.332 84.5117L73.3008 80C73.3242 79.9453 73.3633 79.9062 73.418 79.8828C73.4805 79.8594 73.543 79.8594 73.6055 79.8828C73.668 79.9062 73.7109 79.9492 73.7344 80.0117C73.7578 80.0664 73.7539 80.125 73.7227 80.1875L72.8789 82.1328C73.1602 81.7422 73.418 81.4375 73.6523 81.2188C73.9336 80.9531 74.1641 80.7695 74.3438 80.668C74.5234 80.5586 74.668 80.5 74.7773 80.4922C74.8867 80.4766 74.9727 80.4844 75.0352 80.5156C75.0898 80.5391 75.1484 80.5859 75.2109 80.6562C75.2734 80.7266 75.3047 80.8438 75.3047 81.0078C75.3047 81.0625 75.3008 81.1289 75.293 81.207C75.2773 81.4336 75.2812 81.7148 75.3047 82.0508C75.3281 82.3867 75.418 82.6289 75.5742 82.7773C75.582 82.7852 75.5977 82.7969 75.6211 82.8125C75.6523 82.8281 75.6914 82.8398 75.7383 82.8477C75.793 82.8555 75.8633 82.8477 75.9492 82.8242C76.207 82.7539 76.4727 82.6328 76.7461 82.4609C77.0195 82.2891 77.2695 82.1055 77.4961 81.9102C77.7305 81.7148 77.918 81.5469 78.0586 81.4062C78.1992 81.2578 78.2734 81.1797 78.2812 81.1719C78.3281 81.125 78.3828 81.1016 78.4453 81.1016C78.5078 81.0938 78.5625 81.1133 78.6094 81.1602C78.6562 81.207 78.6797 81.2617 78.6797 81.3242C78.6875 81.3867 78.668 81.4414 78.6211 81.4883C78.5977 81.5273 78.457 81.6719 78.1992 81.9219C77.9414 82.1641 77.6211 82.4219 77.2383 82.6953C76.8555 82.9688 76.4609 83.1641 76.0547 83.2812C75.8672 83.3203 75.707 83.3242 75.5742 83.293C75.4492 83.2539 75.3516 83.2031 75.2812 83.1406C75.0391 82.9219 74.8984 82.6172 74.8594 82.2266C74.8203 81.8359 74.8086 81.4922 74.8242 81.1953C74.8242 81.1953 74.8242 81.1914 74.8242 81.1836C74.832 81.1133 74.8359 81.0547 74.8359 81.0078C74.8359 80.9844 74.832 80.9688 74.8242 80.9609C74.793 80.9609 74.707 81 74.5664 81.0781C74.4336 81.1562 74.2344 81.3164 73.9688 81.5586C73.7734 81.7461 73.5508 82.0117 73.3008 82.3555C73.0508 82.6914 72.8086 83.0391 72.5742 83.3984C72.3398 83.7578 72.1484 84.0664 72 84.3242C71.8438 84.5742 71.7578 84.707 71.7422 84.7227C71.6875 84.8008 71.6211 84.8398 71.543 84.8398ZM81.1172 84.1016C81.0391 84.1016 80.9688 84.0898 80.9062 84.0664C80.8438 84.043 80.7773 83.9844 80.707 83.8906C80.6367 83.7891 80.6016 83.6328 80.6016 83.4219C80.6328 82.9297 80.8438 82.3711 81.2344 81.7461C81.6172 81.1133 82.0742 80.6875 82.6055 80.4688C82.7852 80.3984 82.9922 80.3828 83.2266 80.4219C83.4609 80.4531 83.7031 80.6016 83.9531 80.8672C84.1094 80.6641 84.2344 80.4961 84.3281 80.3633C84.4219 80.2305 84.4727 80.1641 84.4805 80.1641C84.5117 80.1094 84.5547 80.0781 84.6094 80.0703C84.6719 80.0547 84.7305 80.0625 84.7852 80.0938C84.8398 80.125 84.875 80.168 84.8906 80.2227C84.9062 80.2773 84.9023 80.332 84.8789 80.3867C84.5273 81.2383 84.3398 81.8789 84.3164 82.3086C84.3008 82.7383 84.375 82.9961 84.5391 83.082C84.7734 83.2148 85.1602 83.1172 85.6992 82.7891C86.2461 82.4531 86.8398 81.8984 87.4805 81.125C87.5195 81.0703 87.5703 81.0391 87.6328 81.0312C87.6953 81.0234 87.7539 81.043 87.8086 81.0898C87.8555 81.1289 87.8828 81.1797 87.8906 81.2422C87.8984 81.3047 87.8828 81.3633 87.8438 81.418C86.6641 82.832 85.6367 83.5625 84.7617 83.6094C84.582 83.6094 84.4258 83.5664 84.293 83.4805C84.1133 83.3945 83.9805 83.207 83.8945 82.918C83.8086 82.6289 83.832 82.1953 83.9648 81.6172C83.5742 82.1172 83.1602 82.5938 82.7227 83.0469C82.0117 83.7578 81.4766 84.1094 81.1172 84.1016ZM81.1055 83.6328C81.1055 83.6328 81.1211 83.6328 81.1523 83.6328C81.1758 83.6328 81.2188 83.6211 81.2812 83.5977C81.3438 83.5664 81.4258 83.5195 81.5273 83.457C81.6211 83.3945 81.7383 83.3047 81.8789 83.1875C82.0195 83.0625 82.1875 82.9023 82.3828 82.707C82.8359 82.2461 83.2617 81.7578 83.6602 81.2422C83.6445 81.2266 83.6289 81.2109 83.6133 81.1953C83.3867 80.9297 83.1367 80.8242 82.8633 80.8789C82.5117 80.9727 82.1758 81.2344 81.8555 81.6641C81.5352 82.0859 81.3008 82.5312 81.1523 83C81.0898 83.2188 81.0625 83.3789 81.0703 83.4805C81.0781 83.5742 81.0898 83.625 81.1055 83.6328ZM86.2148 84.8398C86.1836 84.8398 86.1484 84.832 86.1094 84.8164C86.0547 84.7852 86.0195 84.7422 86.0039 84.6875C85.9805 84.6328 85.9805 84.5742 86.0039 84.5117L87.9727 80C87.9961 79.9453 88.0352 79.9062 88.0898 79.8828C88.1523 79.8594 88.2148 79.8594 88.2773 79.8828C88.3398 79.9062 88.3828 79.9492 88.4062 80.0117C88.4297 80.0664 88.4258 80.125 88.3945 80.1875L87.5508 82.1328C87.832 81.7422 88.0898 81.4375 88.3242 81.2188C88.6055 80.9531 88.8359 80.7695 89.0156 80.668C89.1953 80.5586 89.3398 80.5 89.4492 80.4922C89.5586 80.4766 89.6445 80.4844 89.707 80.5156C89.7617 80.5391 89.8203 80.5859 89.8828 80.6562C89.9453 80.7266 89.9766 80.8438 89.9766 81.0078C89.9766 81.0625 89.9727 81.1289 89.9648 81.207C89.9492 81.4336 89.9531 81.7148 89.9766 82.0508C90 82.3867 90.0898 82.6289 90.2461 82.7773C90.2539 82.7852 90.2695 82.7969 90.293 82.8125C90.3242 82.8281 90.3633 82.8398 90.4102 82.8477C90.4648 82.8555 90.5352 82.8477 90.6211 82.8242C90.8789 82.7539 91.1445 82.6328 91.418 82.4609C91.6914 82.2891 91.9414 82.1055 92.168 81.9102C92.4023 81.7148 92.5898 81.5469 92.7305 81.4062C92.8711 81.2578 92.9453 81.1797 92.9531 81.1719C93 81.125 93.0547 81.1016 93.1172 81.1016C93.1797 81.0938 93.2344 81.1133 93.2812 81.1602C93.3281 81.207 93.3516 81.2617 93.3516 81.3242C93.3594 81.3867 93.3398 81.4414 93.293 81.4883C93.2695 81.5273 93.1289 81.6719 92.8711 81.9219C92.6133 82.1641 92.293 82.4219 91.9102 82.6953C91.5273 82.9688 91.1328 83.1641 90.7266 83.2812C90.5391 83.3203 90.3789 83.3242 90.2461 83.293C90.1211 83.2539 90.0234 83.2031 89.9531 83.1406C89.7109 82.9219 89.5703 82.6172 89.5312 82.2266C89.4922 81.8359 89.4805 81.4922 89.4961 81.1953C89.4961 81.1953 89.4961 81.1914 89.4961 81.1836C89.5039 81.1133 89.5078 81.0547 89.5078 81.0078C89.5078 80.9844 89.5039 80.9688 89.4961 80.9609C89.4648 80.9609 89.3789 81 89.2383 81.0781C89.1055 81.1562 88.9062 81.3164 88.6406 81.5586C88.4453 81.7461 88.2227 82.0117 87.9727 82.3555C87.7227 82.6914 87.4805 83.0391 87.2461 83.3984C87.0117 83.7578 86.8203 84.0664 86.6719 84.3242C86.5156 84.5742 86.4297 84.707 86.4141 84.7227C86.3594 84.8008 86.293 84.8398 86.2148 84.8398ZM94.4883 87.2773C94.4414 87.2773 94.3867 87.2617 94.3242 87.2305C94.1523 87.1523 94.0664 86.8516 94.0664 86.3281C94.0664 85.9297 94.1641 85.3086 94.3594 84.4648C94.5625 83.6211 94.8281 82.7344 95.1562 81.8047C94.1016 83.1719 93.3203 84.0703 92.8125 84.5C92.6094 84.6562 92.4414 84.7305 92.3086 84.7227C92.1758 84.7148 92.0781 84.6797 92.0156 84.6172C91.8203 84.4453 91.7344 84.1719 91.7578 83.7969C91.7812 83.4219 91.8789 83.0547 92.0508 82.6953C92.1602 82.4297 92.3867 82.0391 92.7305 81.5234C93.0664 81.0078 93.4688 80.6211 93.9375 80.3633C94.2578 80.2305 94.5391 80.2305 94.7812 80.3633C95.0312 80.4883 95.2109 80.6406 95.3203 80.8203C95.5 80.5859 95.6797 80.3438 95.8594 80.0938C96.3594 78.9922 96.918 77.8438 97.5352 76.6484C98.1602 75.4453 98.6328 74.6172 98.9531 74.1641C99 74.1016 99.0664 74.0234 99.1523 73.9297C99.2383 73.8281 99.3359 73.75 99.4453 73.6953C99.5547 73.6406 99.668 73.6406 99.7852 73.6953C99.9023 73.7656 99.9688 73.875 99.9844 74.0234C100 74.1641 99.9883 74.3086 99.9492 74.457C99.918 74.5977 99.8906 74.7031 99.8672 74.7734C99.7656 75.0703 99.5156 75.5469 99.1172 76.2031C98.7266 76.8516 98.043 77.8594 97.0664 79.2266C96.793 79.6094 96.5273 79.9766 96.2695 80.3281C96.1211 80.6562 95.9922 80.9492 95.8828 81.207C95.4922 82.1914 95.168 83.1836 94.9102 84.1836C94.6602 85.1758 94.5352 85.8906 94.5352 86.3281C94.543 86.6094 94.5586 86.7734 94.582 86.8203C94.6289 86.8359 94.668 86.8711 94.6992 86.9258C94.7305 86.9805 94.7383 87.0391 94.7227 87.1016C94.707 87.1562 94.668 87.2031 94.6055 87.2422C94.5742 87.2578 94.5352 87.2695 94.4883 87.2773ZM94.3477 80.7266C94.2773 80.7344 94.207 80.7539 94.1367 80.7852C93.5742 81.082 93.0195 81.7852 92.4727 82.8945C92.3242 83.2305 92.2461 83.5312 92.2383 83.7969C92.2227 84.0547 92.2461 84.207 92.3086 84.2539C92.3086 84.2539 92.3281 84.2461 92.3672 84.2305C92.3984 84.2148 92.4453 84.1836 92.5078 84.1367C93.0391 83.6914 93.8828 82.7109 95.0391 81.1953C95.0078 81.1719 94.9844 81.1445 94.9688 81.1133C94.9609 81.1055 94.9297 81.0703 94.875 81.0078C94.8203 80.9453 94.7461 80.8828 94.6523 80.8203C94.5664 80.7578 94.4648 80.7266 94.3477 80.7266ZM99.5156 74.2227C99.4688 74.2695 99.4062 74.3438 99.3281 74.4453C99.1406 74.7031 98.875 75.1484 98.5312 75.7812C98.1875 76.4141 97.8203 77.1211 97.4297 77.9023C98.5703 76.2617 99.2344 75.168 99.4219 74.6211C99.4766 74.457 99.5078 74.3242 99.5156 74.2227ZM102.973 88.8945C102.441 88.8711 102.102 88.75 101.953 88.5312C101.672 88.2109 101.633 87.7891 101.836 87.2656C102.047 86.7109 102.562 86.1211 103.383 85.4961C104.211 84.8633 105.355 84.375 106.816 84.0312C106.559 83.4141 106.117 82.7227 105.492 81.957C105.031 81.3789 104.594 80.7617 104.18 80.1055C103.773 79.4414 103.504 78.75 103.371 78.0312C103.246 77.3047 103.371 76.5586 103.746 75.793C104.418 74.5352 105.359 73.5195 106.57 72.7461C107.68 72.0664 108.754 71.7266 109.793 71.7266C110.809 71.75 111.496 72.1133 111.855 72.8164C112.09 73.2148 112.117 73.8281 111.938 74.6562C111.766 75.4844 111.164 76.5977 110.133 77.9961C110.094 78.0508 110.043 78.082 109.98 78.0898C109.918 78.0977 109.859 78.082 109.805 78.043C109.758 77.9961 109.727 77.9453 109.711 77.8906C109.703 77.8281 109.719 77.7695 109.758 77.7148C110.445 76.793 110.922 76.0195 111.188 75.3945C111.453 74.7695 111.586 74.2656 111.586 73.8828C111.594 73.5 111.543 73.2148 111.434 73.0273C111.16 72.4883 110.609 72.2109 109.781 72.1953C109.766 72.1953 109.75 72.1953 109.734 72.1953C109.156 72.1953 108.516 72.3398 107.812 72.6289C107.117 72.918 106.445 73.3477 105.797 73.918C105.156 74.4805 104.613 75.1797 104.168 76.0156C103.832 76.6953 103.727 77.3594 103.852 78.0078C103.977 78.6562 104.23 79.2891 104.613 79.9062C104.996 80.5156 105.414 81.1055 105.867 81.6758C106.188 82.0898 106.473 82.4844 106.723 82.8594C106.98 83.2344 107.164 83.5938 107.273 83.9375C107.734 83.8516 108.223 83.793 108.738 83.7617C108.801 83.7539 108.855 83.7734 108.902 83.8203C108.949 83.8594 108.977 83.9102 108.984 83.9727C108.984 84.043 108.965 84.1016 108.926 84.1484C108.887 84.1953 108.832 84.2227 108.762 84.2305C108.262 84.2617 107.797 84.3164 107.367 84.3945C107.492 85.418 107.207 86.3398 106.512 87.1602C105.879 87.8789 105.078 88.3945 104.109 88.707C103.648 88.832 103.27 88.8945 102.973 88.8945ZM106.91 84.4883C105.73 84.7773 104.848 85.1094 104.262 85.4844C103.238 86.0859 102.574 86.7383 102.27 87.4414C102.223 87.543 102.191 87.668 102.176 87.8164C102.16 87.9648 102.199 88.0977 102.293 88.2148C102.574 88.4805 103.137 88.4922 103.98 88.25C104.809 88 105.52 87.5508 106.113 86.9023C106.715 86.2539 106.98 85.4492 106.91 84.4883ZM109.992 84.0312C109.969 84.0312 109.949 84.0312 109.934 84.0312C109.777 84.0078 109.668 83.918 109.605 83.7617C109.52 83.4648 109.535 83.1055 109.652 82.6836C109.762 82.2539 109.895 81.8633 110.051 81.5117C110.207 81.1523 110.312 80.9258 110.367 80.832C110.398 80.7773 110.441 80.7422 110.496 80.7266C110.559 80.7031 110.621 80.707 110.684 80.7383C110.738 80.7695 110.773 80.8164 110.789 80.8789C110.812 80.9336 110.809 80.9922 110.777 81.0547C110.582 81.4297 110.398 81.8672 110.227 82.3672C110.055 82.8672 109.992 83.2617 110.039 83.5508C110.094 83.543 110.227 83.457 110.438 83.293C110.648 83.1289 110.973 82.8125 111.41 82.3438C111.723 82 111.992 81.6875 112.219 81.4062C112.445 81.125 112.578 80.9531 112.617 80.8906C112.805 80.6172 112.906 80.4766 112.922 80.4688C112.961 80.4297 113.008 80.4062 113.062 80.3984C113.117 80.3906 113.172 80.4023 113.227 80.4336C113.273 80.4648 113.305 80.5078 113.32 80.5625C113.336 80.6172 113.332 80.6719 113.309 80.7266C113.137 81.0859 113.004 81.4922 112.91 81.9453C112.824 82.3984 112.875 82.7227 113.062 82.918C113.242 83.0195 113.57 82.8906 114.047 82.5312C114.531 82.1641 115.012 81.7109 115.488 81.1719C115.535 81.1172 115.59 81.0898 115.652 81.0898C115.715 81.082 115.77 81.1016 115.816 81.1484C115.871 81.1875 115.898 81.2383 115.898 81.3008C115.906 81.3633 115.887 81.4219 115.84 81.4766C115.824 81.5 115.707 81.625 115.488 81.8516C115.277 82.0781 115.016 82.3281 114.703 82.6016C113.797 83.3828 113.148 83.6094 112.758 83.2812C112.578 83.1172 112.469 82.9102 112.43 82.6602C112.398 82.4023 112.406 82.1328 112.453 81.8516C112.234 82.1172 111.996 82.3945 111.738 82.6836C111.215 83.2461 110.82 83.6133 110.555 83.7852C110.297 83.9492 110.109 84.0312 109.992 84.0312ZM115.383 83.9727C115.242 83.9727 115.121 83.9375 115.02 83.8672C114.895 83.7578 114.824 83.625 114.809 83.4688C114.785 83.3047 114.789 83.1484 114.82 83C114.844 82.8438 114.871 82.7227 114.902 82.6367C115.074 82.0586 115.438 81.2734 115.992 80.2812C116.023 80.2266 116.07 80.1914 116.133 80.1758C116.195 80.1523 116.254 80.1562 116.309 80.1875C116.363 80.2266 116.398 80.2773 116.414 80.3398C116.438 80.3945 116.434 80.4531 116.402 80.5156C116.254 80.7734 116.121 81.0156 116.004 81.2422C115.895 81.4609 115.797 81.6602 115.711 81.8398C115.633 82.0195 115.566 82.1797 115.512 82.3203C115.457 82.4609 115.414 82.5898 115.383 82.707C115.344 82.8164 115.316 82.9141 115.301 83C115.277 83.0781 115.266 83.1484 115.266 83.2109C115.258 83.2656 115.258 83.3125 115.266 83.3516C115.266 83.3828 115.27 83.4102 115.277 83.4336C115.285 83.4492 115.293 83.4648 115.301 83.4805C115.301 83.4883 115.301 83.4922 115.301 83.4922C115.301 83.4922 115.309 83.4961 115.324 83.5039C115.332 83.5039 115.348 83.5039 115.371 83.5039C115.387 83.5039 115.414 83.5039 115.453 83.5039C115.492 83.4961 115.539 83.4844 115.594 83.4688C115.648 83.4531 115.711 83.4297 115.781 83.3984C115.859 83.3594 115.945 83.3125 116.039 83.2578C116.141 83.2031 116.254 83.1328 116.379 83.0469C117.02 82.6094 117.746 81.9805 118.559 81.1602C118.605 81.1133 118.66 81.0898 118.723 81.0898C118.785 81.0898 118.844 81.1094 118.898 81.1484C118.945 81.2031 118.969 81.2617 118.969 81.3242C118.969 81.3867 118.945 81.4414 118.898 81.4883C118.625 81.7695 118.273 82.1016 117.844 82.4844C117.422 82.8672 116.988 83.207 116.543 83.5039C116.098 83.8008 115.711 83.957 115.383 83.9727ZM116.719 79.4844C116.68 79.4844 116.645 79.4766 116.613 79.4609C116.551 79.4297 116.508 79.3867 116.484 79.332C116.469 79.2695 116.477 79.207 116.508 79.1445L116.672 78.8281C116.703 78.7734 116.746 78.7383 116.801 78.7227C116.863 78.6992 116.922 78.6992 116.977 78.7227C117.039 78.7539 117.078 78.8008 117.094 78.8633C117.117 78.9258 117.113 78.9844 117.082 79.0391L116.93 79.3555C116.875 79.4414 116.805 79.4844 116.719 79.4844ZM116.051 90.2773C115.988 90.2695 115.938 90.2422 115.898 90.1953C115.852 90.1562 115.828 90.1016 115.828 90.0312C115.875 89.0547 116.203 87.668 116.812 85.8711C117.414 84.0742 118.125 82.1836 118.945 80.1992C119.773 78.2148 120.535 76.4531 121.23 74.9141C121.262 74.8594 121.305 74.8203 121.359 74.7969C121.422 74.7734 121.48 74.7734 121.535 74.7969C121.598 74.8281 121.641 74.875 121.664 74.9375C121.688 74.9922 121.684 75.0508 121.652 75.1133C121.09 76.3633 120.395 77.9727 119.566 79.9414C118.746 81.9102 118.012 83.8359 117.363 85.7188C116.707 87.6016 116.352 89.043 116.297 90.043C116.297 90.1133 116.273 90.168 116.227 90.207C116.18 90.2539 116.125 90.2773 116.062 90.2773C116.055 90.2773 116.051 90.2773 116.051 90.2773ZM125.062 78.5938C125.055 78.5938 125.051 78.5938 125.051 78.5938L115.594 78.3242C115.523 78.3242 115.469 78.3008 115.43 78.2539C115.383 78.207 115.359 78.1523 115.359 78.0898C115.367 78.0195 115.395 77.9648 115.441 77.9258C115.48 77.8789 115.535 77.8555 115.605 77.8555L125.062 78.125C125.133 78.1328 125.188 78.1602 125.227 78.207C125.273 78.2539 125.297 78.3086 125.297 78.3711C125.289 78.4336 125.262 78.4883 125.215 78.5352C125.176 78.5742 125.125 78.5938 125.062 78.5938ZM121.629 84.0547C120.98 84.0469 120.59 83.7344 120.457 83.1172C120.371 82.6094 120.477 82.0625 120.773 81.4766C121.094 80.8672 121.496 80.4805 121.98 80.3164C122.215 80.2461 122.406 80.2539 122.555 80.3398C122.703 80.418 122.801 80.5312 122.848 80.6797C122.91 80.8828 122.891 81.0938 122.789 81.3125C122.695 81.5312 122.527 81.6875 122.285 81.7812C122.152 81.8203 122.012 81.832 121.863 81.8164C121.723 81.8008 121.59 81.7773 121.465 81.7461C121.348 81.707 121.262 81.6758 121.207 81.6523C120.949 82.1445 120.852 82.6055 120.914 83.0352C120.992 83.4336 121.258 83.6172 121.711 83.5859C122.758 83.5234 123.824 82.7188 124.91 81.1719C124.957 81.1172 125.008 81.0859 125.062 81.0781C125.125 81.0625 125.184 81.0742 125.238 81.1133C125.293 81.1523 125.324 81.2031 125.332 81.2656C125.348 81.3281 125.336 81.3867 125.297 81.4414C124.922 82.0117 124.438 82.5703 123.844 83.1172C123.25 83.6562 122.551 83.9688 121.746 84.0547C121.707 84.0547 121.668 84.0547 121.629 84.0547ZM121.477 81.2422C121.586 81.2812 121.703 81.3125 121.828 81.3359C121.953 81.3516 122.055 81.3516 122.133 81.3359C122.25 81.2891 122.332 81.2148 122.379 81.1133C122.426 81.0039 122.434 80.9102 122.402 80.832C122.402 80.8164 122.395 80.8008 122.379 80.7852C122.363 80.7617 122.336 80.7461 122.297 80.7383C122.258 80.7305 122.199 80.7383 122.121 80.7617C121.879 80.8477 121.664 81.0078 121.477 81.2422ZM123.926 86.2109C123.84 86.2109 123.762 86.1992 123.691 86.1758C123.551 86.1211 123.461 86.0078 123.422 85.8359C123.375 85.6172 123.461 85.3047 123.68 84.8984C123.898 84.4844 124.309 84 124.91 83.4453C124.973 83.3828 125.039 83.3203 125.109 83.2578C125.094 82.875 125.062 82.5195 125.016 82.1914C124.969 81.8555 124.93 81.6016 124.898 81.4297C124.844 81.0391 124.93 80.7227 125.156 80.4805C125.383 80.2305 125.605 80.0664 125.824 79.9883C125.887 79.9648 125.945 79.9688 126 80C126.062 80.0234 126.105 80.0625 126.129 80.1172C126.152 80.1797 126.152 80.2422 126.129 80.3047C126.105 80.3594 126.062 80.3984 126 80.4219C125.984 80.4297 125.938 80.4531 125.859 80.4922C125.789 80.5312 125.707 80.5898 125.613 80.668C125.527 80.7461 125.457 80.8438 125.402 80.9609C125.348 81.0703 125.332 81.1992 125.355 81.3477C125.434 81.7227 125.5 82.2344 125.555 82.8828C126.203 82.3594 126.773 81.9336 127.266 81.6055C127.758 81.2695 128.02 81.0938 128.051 81.0781C128.105 81.0469 128.164 81.0391 128.227 81.0547C128.289 81.0625 128.34 81.0938 128.379 81.1484C128.41 81.2109 128.418 81.2734 128.402 81.3359C128.387 81.3906 128.352 81.4375 128.297 81.4766C128.258 81.4922 127.965 81.6875 127.418 82.0625C126.879 82.4297 126.27 82.8984 125.59 83.4688C125.605 84.0469 125.535 84.5508 125.379 84.9805C125.191 85.4102 124.961 85.7227 124.688 85.918C124.406 86.1133 124.152 86.2109 123.926 86.2109ZM123.891 85.7422C124 85.7656 124.16 85.7109 124.371 85.5781C124.582 85.4375 124.773 85.1797 124.945 84.8047C125.039 84.5469 125.094 84.2422 125.109 83.8906C124.594 84.3906 124.254 84.8008 124.09 85.1211C123.926 85.4414 123.859 85.6484 123.891 85.7422Z" fill="black"/>
<defs>
<filter id="filter0_d_91_4" x="32.1121" y="7.94397" width="66.688" height="72.296" filterUnits="userSpaceOnUse" color-interpolation-filters="sRGB">
<feFlood flood-opacity="0" result="BackgroundImageFix"/>
<feColorMatrix in="SourceAlpha" type="matrix" values="0 0 0 0 0 0 0 0 0 0 0 0 0 0 0 0 0 0 127 0" result="hardAlpha"/>
<feOffset dy="5"/>
<feGaussianBlur stdDeviation="2"/>
<feComposite in2="hardAlpha" operator="out"/>
<feColorMatrix type="matrix" values="0 0 0 0 0 0 0 0 0 0 0 0 0 0 0 0 0 0 0.25 0"/>
<feBlend mode="normal" in2="BackgroundImageFix" result="effect1_dropShadow_91_4"/>
<feBlend mode="normal" in="SourceGraphic" in2="effect1_dropShadow_91_4" result="shape"/>
</filter>
</defs>
</svg>
