<svg width="67" height="74" viewBox="0 0 67 74" fill="none" xmlns="http://www.w3.org/2000/svg">
<g filter="url(#filter0_d_91_3)">
<path d="M6.224 42.544C5.41333 43.8667 5.008 45.488 5.008 47.408C5.008 49.2853 5.60533 50.864 6.8 52.144C7.99467 53.424 9.38133 54.064 10.96 54.064C12.5387 54.064 13.7973 53.7867 14.736 53.232C15.6747 52.6347 16.464 51.76 17.104 50.608C18.0427 48.816 18.832 46.3627 19.472 43.248L20.624 37.744C13.072 37.744 8.272 39.344 6.224 42.544ZM52.048 47.152C52.048 49.712 51.5787 51.632 50.64 52.912C49.7013 54.1493 48.1013 54.768 45.84 54.768C44.688 54.768 43.728 54.64 42.96 54.384L43.088 53.744C44.0267 53.9573 44.88 54.064 45.648 54.064C47.7813 54.064 49.232 53.5093 50 52.4C50.768 51.2907 51.152 49.5413 51.152 47.152V15.408C51.152 15.1947 51.216 14.704 51.344 13.936H51.216C51.1733 14.0213 51.1093 14.2773 51.024 14.704C50.9387 15.088 50.8533 15.3867 50.768 15.6L46.736 25.776L35.664 52.336L34.576 52.528C34.704 51.9733 34.768 51.2693 34.768 50.416C34.768 46.4907 33.5307 40.6667 31.056 32.944L29.072 26.736C27.4933 21.744 26.4907 18.2027 26.064 16.112L19.28 48.56C18.256 53.1253 16.8907 56.7733 15.184 59.504C13.136 62.6613 10.064 64.24 5.968 64.24V63.472C9.168 63.472 11.664 62.384 13.456 60.208C15.248 58.0747 16.6773 55.1307 17.744 51.376L18.384 50.032L18.256 49.968C16.8053 53.2107 14.5013 54.832 11.344 54.832C9.25333 54.832 7.52533 54.128 6.16 52.72C4.79467 51.312 4.112 49.5413 4.112 47.408C4.112 40.4533 9.68 36.976 20.816 36.976L25.872 12.848L23.44 12.72C23.184 12.72 22.928 12.72 22.672 12.72C20.4533 12.72 18.6187 13.2747 17.168 14.384C15.76 15.4507 15.056 16.88 15.056 18.672C15.056 19.5253 15.184 20.2293 15.44 20.784L14.928 21.168C14.4587 20.656 14.224 19.7813 14.224 18.544C14.224 17.264 14.672 16.0693 15.568 14.96C16.464 13.808 17.616 13.04 19.024 12.656C19.408 12.5707 19.8987 12.4853 20.496 12.4V12.272L19.024 12.336C14.928 11.824 11.6 10.672 9.04 8.88C6.48 7.04533 5.2 4.42133 5.2 1.008L5.968 0.943996C5.968 2.90666 6.45867 4.61333 7.44 6.064C8.42133 7.472 9.76533 8.58133 11.472 9.392C14.7147 10.928 18.5547 11.7813 22.992 11.952L26.704 12.144V13.424C26.704 15.216 27.792 19.568 29.968 26.48L31.952 32.688C34.384 40.2827 35.6 46.128 35.6 50.224V50.48L36.304 48.816C36.56 48.2187 36.688 47.2587 36.688 45.936C36.688 42.5227 35.3867 36.7413 32.784 28.592L30.8 22.384C28.7947 16.4107 27.8773 13.0187 28.048 12.208H28.88C28.88 12.8907 29.8187 16.1973 31.696 22.128L33.68 28.336C36.1973 36.2293 37.456 42.0107 37.456 45.68V45.936L45.968 25.52C48.912 18.2667 50.6827 13.6373 51.28 11.632L52.048 11.696V47.152ZM53.712 47.152V13.232C53.712 10.672 54.1813 8.77333 55.12 7.536C56.0587 6.256 57.6587 5.616 59.92 5.616C61.072 5.616 62.032 5.744 62.8 6L62.672 6.64C61.7333 6.42666 60.88 6.32 60.112 6.32C57.9787 6.32 56.528 6.87466 55.76 7.984C54.992 9.09333 54.608 10.8427 54.608 13.232V47.152C54.608 49.5413 54.992 51.2907 55.76 52.4C56.528 53.5093 57.9787 54.064 60.112 54.064C60.88 54.064 61.7333 53.9573 62.672 53.744L62.8 54.384C62.032 54.64 61.072 54.768 59.92 54.768C57.6587 54.768 56.0587 54.1493 55.12 52.912C54.1813 51.632 53.712 49.712 53.712 47.152Z" fill="#957902"/>
<path d="M6.224 42.544L5.80278 42.2744L5.7977 42.2827L6.224 42.544ZM6.8 52.144L6.43447 52.4852L6.43447 52.4852L6.8 52.144ZM14.736 53.232L14.9904 53.6625L14.9975 53.6583L15.0044 53.6538L14.736 53.232ZM17.104 50.608L17.5412 50.8509L17.5469 50.84L17.104 50.608ZM19.472 43.248L18.9826 43.1456L18.9822 43.1474L19.472 43.248ZM20.624 37.744L21.1134 37.8464L21.2395 37.244H20.624V37.744ZM50.64 52.912L51.0384 53.2142L51.0432 53.2077L50.64 52.912ZM42.96 54.384L42.4697 54.2859L42.3831 54.7188L42.8019 54.8583L42.96 54.384ZM43.088 53.744L43.1988 53.2564L42.6984 53.1427L42.5977 53.6459L43.088 53.744ZM50 52.4L50.4111 52.6846L50.4111 52.6846L50 52.4ZM51.344 13.936L51.8372 14.0182L51.9342 13.436H51.344V13.936ZM51.216 13.936V13.436H50.907L50.7688 13.7124L51.216 13.936ZM51.024 14.704L51.5122 14.8125L51.5143 14.8021L51.024 14.704ZM50.768 15.6L50.3038 15.4143L50.3032 15.4158L50.768 15.6ZM46.736 25.776L47.1976 25.9684L47.2008 25.9602L46.736 25.776ZM35.664 52.336L35.7509 52.8284L36.0203 52.7809L36.1255 52.5284L35.664 52.336ZM34.576 52.528L34.0888 52.4156L33.9189 53.1517L34.6629 53.0204L34.576 52.528ZM31.056 32.944L30.5797 33.0962L30.5799 33.0966L31.056 32.944ZM29.072 26.736L28.5953 26.8868L28.5957 26.8882L29.072 26.736ZM26.064 16.112L26.5539 16.012L25.5746 16.0097L26.064 16.112ZM19.28 48.56L19.7679 48.6694L19.7694 48.6623L19.28 48.56ZM15.184 59.504L15.6035 59.7761L15.608 59.769L15.184 59.504ZM5.968 64.24H5.468V64.74H5.968V64.24ZM5.968 63.472V62.972H5.468V63.472H5.968ZM13.456 60.208L13.0731 59.8864L13.07 59.8901L13.456 60.208ZM17.744 51.376L17.2926 51.161L17.2745 51.199L17.263 51.2394L17.744 51.376ZM18.384 50.032L18.8354 50.247L19.0463 49.8041L18.6076 49.5848L18.384 50.032ZM18.256 49.968L18.4796 49.5208L18.0127 49.2874L17.7996 49.7638L18.256 49.968ZM6.16 52.72L6.51895 52.3719L6.51895 52.3719L6.16 52.72ZM20.816 36.976V37.476H21.2221L21.3054 37.0785L20.816 36.976ZM25.872 12.848L26.3614 12.9505L26.4811 12.3794L25.8983 12.3487L25.872 12.848ZM23.44 12.72L23.4663 12.2207L23.4531 12.22H23.44V12.72ZM17.168 14.384L17.4699 14.7825L17.4717 14.7812L17.168 14.384ZM15.44 20.784L15.74 21.184L16.0634 20.9415L15.894 20.5745L15.44 20.784ZM14.928 21.168L14.5594 21.5059L14.8656 21.8398L15.228 21.568L14.928 21.168ZM15.568 14.96L15.957 15.2742L15.9627 15.267L15.568 14.96ZM19.024 12.656L18.9155 12.1679L18.9039 12.1705L18.8924 12.1736L19.024 12.656ZM20.496 12.4L20.5667 12.895L20.996 12.8336V12.4H20.496ZM20.496 12.272H20.996V11.7498L20.4743 11.7725L20.496 12.272ZM19.024 12.336L18.962 12.8321L19.0037 12.8374L19.0457 12.8355L19.024 12.336ZM9.04 8.88L8.74872 9.28643L8.75327 9.28961L9.04 8.88ZM5.2 1.008L5.15848 0.509723L4.7 0.547929V1.008H5.2ZM5.968 0.943996H6.468V0.400597L5.92648 0.445724L5.968 0.943996ZM7.44 6.064L7.02582 6.34418L7.0298 6.3499L7.44 6.064ZM11.472 9.392L11.2575 9.84364L11.258 9.84387L11.472 9.392ZM22.992 11.952L23.0178 11.4526L23.0112 11.4524L22.992 11.952ZM26.704 12.144H27.204V11.6692L26.7298 11.6447L26.704 12.144ZM29.968 26.48L29.4911 26.6301L29.4917 26.6322L29.968 26.48ZM31.952 32.688L31.4757 32.8402L31.4758 32.8405L31.952 32.688ZM35.6 50.48H35.1L36.0605 50.6748L35.6 50.48ZM36.304 48.816L35.8444 48.619L35.8435 48.6212L36.304 48.816ZM32.784 28.592L33.2603 28.4399L33.2603 28.4398L32.784 28.592ZM30.8 22.384L31.2763 22.2318L31.274 22.2249L30.8 22.384ZM28.048 12.208V11.708H27.6423L27.5587 12.105L28.048 12.208ZM28.88 12.208H29.38V11.708H28.88V12.208ZM31.696 22.128L31.2193 22.2789L31.2197 22.2802L31.696 22.128ZM33.68 28.336L34.1564 28.1841L34.1563 28.1838L33.68 28.336ZM37.456 45.936H36.956L37.9175 46.1284L37.456 45.936ZM45.968 25.52L46.4295 25.7124L46.4313 25.708L45.968 25.52ZM51.28 11.632L51.3215 11.1337L50.9168 11.1L50.8008 11.4893L51.28 11.632ZM52.048 11.696H52.548V11.2359L52.0895 11.1977L52.048 11.696ZM55.12 7.536L55.5184 7.83823L55.5232 7.83168L55.12 7.536ZM62.8 6L63.2903 6.09805L63.3769 5.66523L62.9581 5.52565L62.8 6ZM62.672 6.64L62.5612 7.12757L63.0616 7.24131L63.1623 6.73806L62.672 6.64ZM55.76 52.4L55.3489 52.6846L55.3489 52.6846L55.76 52.4ZM62.672 53.744L63.1623 53.6459L63.0616 53.1427L62.5612 53.2564L62.672 53.744ZM62.8 54.384L62.9581 54.8583L63.3769 54.7188L63.2903 54.2859L62.8 54.384ZM55.12 52.912L54.7167 53.2077L54.7217 53.2142L55.12 52.912ZM5.7977 42.2827C4.92858 43.7008 4.508 45.4176 4.508 47.408H5.508C5.508 45.5584 5.89809 44.0326 6.6503 42.8053L5.7977 42.2827ZM4.508 47.408C4.508 49.402 5.14679 51.1055 6.43447 52.4852L7.16553 51.8028C6.06387 50.6225 5.508 49.1687 5.508 47.408H4.508ZM6.43447 52.4852C7.71227 53.8542 9.22683 54.564 10.96 54.564V53.564C9.53584 53.564 8.27707 52.9938 7.16553 51.8028L6.43447 52.4852ZM10.96 54.564C12.5905 54.564 13.9477 54.2786 14.9904 53.6625L14.4816 52.8015C13.647 53.2947 12.4869 53.564 10.96 53.564V54.564ZM15.0044 53.6538C16.0253 53.0042 16.8681 52.0622 17.5411 50.8508L16.6669 50.3652C16.0599 51.4578 15.3241 52.2651 14.4676 52.8102L15.0044 53.6538ZM17.5469 50.84C18.516 48.99 19.3171 46.4861 19.9618 43.3486L18.9822 43.1474C18.3469 46.2392 17.5694 48.642 16.6611 50.376L17.5469 50.84ZM19.9614 43.3504L21.1134 37.8464L20.1346 37.6416L18.9826 43.1456L19.9614 43.3504ZM20.624 37.244C16.818 37.244 13.6714 37.6465 11.2019 38.4697C8.72946 39.2938 6.90632 40.5503 5.80286 42.2745L6.64514 42.8135C7.58968 41.3377 9.19054 40.1942 11.5181 39.4183C13.8486 38.6415 16.878 38.244 20.624 38.244V37.244ZM51.548 47.152C51.548 49.6656 51.0845 51.4603 50.2368 52.6163L51.0432 53.2077C52.0728 51.8037 52.548 49.7584 52.548 47.152H51.548ZM50.2417 52.6098C49.435 53.6731 48.0196 54.268 45.84 54.268V55.268C48.1831 55.268 49.9677 54.6255 51.0383 53.2142L50.2417 52.6098ZM45.84 54.268C44.7209 54.268 43.8186 54.1431 43.1181 53.9097L42.8019 54.8583C43.6374 55.1369 44.6551 55.268 45.84 55.268V54.268ZM43.4503 54.4821L43.5783 53.8421L42.5977 53.6459L42.4697 54.2859L43.4503 54.4821ZM42.9772 54.2316C43.9435 54.4512 44.8347 54.564 45.648 54.564V53.564C44.9253 53.564 44.1098 53.4635 43.1988 53.2564L42.9772 54.2316ZM45.648 54.564C47.8473 54.564 49.5051 53.9932 50.4111 52.6846L49.5889 52.1154C48.9589 53.0255 47.7153 53.564 45.648 53.564V54.564ZM50.4111 52.6846C51.2666 51.4488 51.652 49.5742 51.652 47.152H50.652C50.652 49.5085 50.2694 51.1325 49.5889 52.1154L50.4111 52.6846ZM51.652 47.152V15.408H50.652V47.152H51.652ZM51.652 15.408C51.652 15.2447 51.7071 14.799 51.8372 14.0182L50.8508 13.8538C50.7249 14.609 50.652 15.1446 50.652 15.408H51.652ZM51.344 13.436H51.216V14.436H51.344V13.436ZM50.7688 13.7124C50.7193 13.8113 50.6815 13.9486 50.6509 14.0707C50.6162 14.2097 50.5771 14.3891 50.5337 14.6059L51.5143 14.8021C51.5563 14.5922 51.5918 14.4303 51.6211 14.3133C51.6545 14.1794 51.67 14.146 51.6632 14.1596L50.7688 13.7124ZM50.5359 14.5955C50.4529 14.9689 50.3745 15.2375 50.3038 15.4143L51.2322 15.7857C51.3322 15.5358 51.4244 15.2071 51.5121 14.8125L50.5359 14.5955ZM50.3032 15.4158L46.2712 25.5918L47.2008 25.9602L51.2328 15.7842L50.3032 15.4158ZM46.2745 25.5836L35.2025 52.1436L36.1255 52.5284L47.1975 25.9684L46.2745 25.5836ZM35.5771 51.8436L34.4891 52.0356L34.6629 53.0204L35.7509 52.8284L35.5771 51.8436ZM35.0632 52.6404C35.2028 52.0355 35.268 51.2904 35.268 50.416H34.268C34.268 51.2483 34.2052 51.9112 34.0888 52.4156L35.0632 52.6404ZM35.268 50.416C35.268 46.4086 34.0095 40.5225 31.5322 32.7914L30.5799 33.0966C33.0518 40.8109 34.268 46.5727 34.268 50.416H35.268ZM31.5323 32.7918L29.5483 26.5838L28.5957 26.8882L30.5797 33.0962L31.5323 32.7918ZM29.5487 26.5852C27.97 21.5929 26.9747 18.0741 26.5539 16.012L25.5741 16.212C26.0066 18.3312 27.0167 21.8951 28.5953 26.8868L29.5487 26.5852ZM25.5746 16.0097L18.7906 48.4577L19.7694 48.6623L26.5534 16.2143L25.5746 16.0097ZM18.7921 48.4506C17.7754 52.9835 16.4265 56.5726 14.76 59.239L15.608 59.769C17.3548 56.9741 18.7366 53.2672 19.7679 48.6694L18.7921 48.4506ZM14.7645 59.2319C12.818 62.2328 9.9124 63.74 5.968 63.74V64.74C10.2156 64.74 13.454 63.0899 15.6035 59.7761L14.7645 59.2319ZM6.468 64.24V63.472H5.468V64.24H6.468ZM5.968 63.972C9.29469 63.972 11.9414 62.8336 13.842 60.5259L13.07 59.8901C11.3866 61.9344 9.04131 62.972 5.968 62.972V63.972ZM13.8389 60.5296C15.6906 58.3251 17.1462 55.3098 18.225 51.5126L17.263 51.2394C16.2084 54.9515 14.8054 57.8242 13.0731 59.8864L13.8389 60.5296ZM18.1954 51.591L18.8354 50.247L17.9326 49.817L17.2926 51.161L18.1954 51.591ZM18.6076 49.5848L18.4796 49.5208L18.0324 50.4152L18.1604 50.4792L18.6076 49.5848ZM17.7996 49.7638C17.1015 51.3242 16.2137 52.4601 15.1523 53.2071C14.0945 53.9514 12.8326 54.332 11.344 54.332V55.332C13.0127 55.332 14.4815 54.9019 15.7277 54.0249C16.9703 53.1505 17.9598 51.8545 18.7124 50.1722L17.7996 49.7638ZM11.344 54.332C9.37867 54.332 7.78341 53.6759 6.51895 52.3719L5.80105 53.0681C7.26726 54.5801 9.128 55.332 11.344 55.332V54.332ZM6.51895 52.3719C5.25242 51.0658 4.612 49.4239 4.612 47.408H3.612C3.612 49.6588 4.33691 51.5582 5.80105 53.0681L6.51895 52.3719ZM4.612 47.408C4.612 44.0908 5.92532 41.649 8.55285 40.0081C11.2196 38.3427 15.2839 37.476 20.816 37.476V36.476C15.2121 36.476 10.9244 37.348 8.02315 39.1599C5.08268 40.9963 3.612 43.7706 3.612 47.408H4.612ZM21.3054 37.0785L26.3614 12.9505L25.3826 12.7455L20.3266 36.8735L21.3054 37.0785ZM25.8983 12.3487L23.4663 12.2207L23.4137 13.2193L25.8457 13.3473L25.8983 12.3487ZM23.44 12.22C23.4395 12.22 23.439 12.22 23.4385 12.22C23.438 12.22 23.4375 12.22 23.437 12.22C23.4365 12.22 23.436 12.22 23.4355 12.22C23.435 12.22 23.4345 12.22 23.434 12.22C23.4335 12.22 23.433 12.22 23.4325 12.22C23.432 12.22 23.4315 12.22 23.431 12.22C23.4305 12.22 23.43 12.22 23.4295 12.22C23.429 12.22 23.4285 12.22 23.428 12.22C23.4275 12.22 23.427 12.22 23.4265 12.22C23.426 12.22 23.4255 12.22 23.425 12.22C23.4245 12.22 23.424 12.22 23.4235 12.22C23.423 12.22 23.4225 12.22 23.422 12.22C23.4215 12.22 23.421 12.22 23.4205 12.22C23.42 12.22 23.4195 12.22 23.419 12.22C23.4185 12.22 23.418 12.22 23.4175 12.22C23.417 12.22 23.4165 12.22 23.416 12.22C23.4155 12.22 23.415 12.22 23.4145 12.22C23.414 12.22 23.4135 12.22 23.413 12.22C23.4125 12.22 23.412 12.22 23.4115 12.22C23.411 12.22 23.4105 12.22 23.41 12.22C23.4095 12.22 23.409 12.22 23.4085 12.22C23.408 12.22 23.4075 12.22 23.407 12.22C23.4065 12.22 23.406 12.22 23.4055 12.22C23.405 12.22 23.4045 12.22 23.404 12.22C23.4035 12.22 23.403 12.22 23.4025 12.22C23.402 12.22 23.4015 12.22 23.401 12.22C23.4005 12.22 23.4 12.22 23.3995 12.22C23.399 12.22 23.3985 12.22 23.398 12.22C23.3975 12.22 23.397 12.22 23.3965 12.22C23.396 12.22 23.3955 12.22 23.395 12.22C23.3945 12.22 23.394 12.22 23.3935 12.22C23.393 12.22 23.3925 12.22 23.392 12.22C23.3915 12.22 23.391 12.22 23.3905 12.22C23.39 12.22 23.3895 12.22 23.389 12.22C23.3885 12.22 23.388 12.22 23.3875 12.22C23.387 12.22 23.3865 12.22 23.386 12.22C23.3855 12.22 23.385 12.22 23.3845 12.22C23.384 12.22 23.3835 12.22 23.383 12.22C23.3825 12.22 23.382 12.22 23.3815 12.22C23.381 12.22 23.3805 12.22 23.38 12.22C23.3795 12.22 23.379 12.22 23.3785 12.22C23.378 12.22 23.3775 12.22 23.377 12.22C23.3765 12.22 23.376 12.22 23.3755 12.22C23.375 12.22 23.3745 12.22 23.374 12.22C23.3735 12.22 23.373 12.22 23.3725 12.22C23.372 12.22 23.3715 12.22 23.371 12.22C23.3705 12.22 23.37 12.22 23.3695 12.22C23.369 12.22 23.3685 12.22 23.368 12.22C23.3675 12.22 23.367 12.22 23.3665 12.22C23.366 12.22 23.3655 12.22 23.365 12.22C23.3645 12.22 23.364 12.22 23.3635 12.22C23.363 12.22 23.3625 12.22 23.362 12.22C23.3615 12.22 23.361 12.22 23.3605 12.22C23.36 12.22 23.3595 12.22 23.359 12.22C23.3585 12.22 23.358 12.22 23.3575 12.22C23.357 12.22 23.3565 12.22 23.356 12.22C23.3555 12.22 23.355 12.22 23.3545 12.22C23.354 12.22 23.3535 12.22 23.353 12.22C23.3525 12.22 23.352 12.22 23.3515 12.22C23.351 12.22 23.3505 12.22 23.35 12.22C23.3495 12.22 23.349 12.22 23.3485 12.22C23.348 12.22 23.3475 12.22 23.347 12.22C23.3465 12.22 23.346 12.22 23.3455 12.22C23.345 12.22 23.3445 12.22 23.344 12.22C23.3435 12.22 23.343 12.22 23.3425 12.22C23.342 12.22 23.3415 12.22 23.341 12.22C23.3405 12.22 23.34 12.22 23.3395 12.22C23.339 12.22 23.3385 12.22 23.338 12.22C23.3375 12.22 23.337 12.22 23.3365 12.22C23.336 12.22 23.3355 12.22 23.335 12.22C23.3345 12.22 23.334 12.22 23.3335 12.22C23.333 12.22 23.3325 12.22 23.332 12.22C23.3315 12.22 23.331 12.22 23.3305 12.22C23.33 12.22 23.3295 12.22 23.329 12.22C23.3285 12.22 23.328 12.22 23.3275 12.22C23.327 12.22 23.3265 12.22 23.326 12.22C23.3255 12.22 23.325 12.22 23.3245 12.22C23.324 12.22 23.3235 12.22 23.323 12.22C23.3225 12.22 23.322 12.22 23.3215 12.22C23.321 12.22 23.3205 12.22 23.32 12.22C23.3195 12.22 23.319 12.22 23.3185 12.22C23.318 12.22 23.3175 12.22 23.317 12.22C23.3165 12.22 23.316 12.22 23.3155 12.22C23.315 12.22 23.3145 12.22 23.314 12.22C23.3135 12.22 23.313 12.22 23.3125 12.22C23.312 12.22 23.3115 12.22 23.311 12.22C23.3105 12.22 23.31 12.22 23.3095 12.22C23.309 12.22 23.3085 12.22 23.308 12.22C23.3075 12.22 23.307 12.22 23.3065 12.22C23.306 12.22 23.3055 12.22 23.305 12.22C23.3045 12.22 23.304 12.22 23.3035 12.22C23.303 12.22 23.3025 12.22 23.302 12.22C23.3015 12.22 23.301 12.22 23.3005 12.22C23.3 12.22 23.2995 12.22 23.299 12.22C23.2985 12.22 23.298 12.22 23.2975 12.22C23.297 12.22 23.2965 12.22 23.296 12.22C23.2955 12.22 23.295 12.22 23.2945 12.22C23.294 12.22 23.2935 12.22 23.293 12.22C23.2925 12.22 23.292 12.22 23.2915 12.22C23.291 12.22 23.2905 12.22 23.29 12.22C23.2895 12.22 23.289 12.22 23.2885 12.22C23.288 12.22 23.2875 12.22 23.287 12.22C23.2865 12.22 23.286 12.22 23.2855 12.22C23.285 12.22 23.2845 12.22 23.284 12.22C23.2835 12.22 23.283 12.22 23.2825 12.22C23.282 12.22 23.2815 12.22 23.281 12.22C23.2805 12.22 23.28 12.22 23.2795 12.22C23.279 12.22 23.2785 12.22 23.278 12.22C23.2775 12.22 23.277 12.22 23.2765 12.22C23.276 12.22 23.2755 12.22 23.275 12.22C23.2745 12.22 23.274 12.22 23.2735 12.22C23.273 12.22 23.2725 12.22 23.272 12.22C23.2715 12.22 23.271 12.22 23.2705 12.22C23.27 12.22 23.2695 12.22 23.269 12.22C23.2685 12.22 23.268 12.22 23.2675 12.22C23.267 12.22 23.2665 12.22 23.266 12.22C23.2655 12.22 23.265 12.22 23.2645 12.22C23.264 12.22 23.2635 12.22 23.263 12.22C23.2625 12.22 23.262 12.22 23.2615 12.22C23.261 12.22 23.2605 12.22 23.26 12.22C23.2595 12.22 23.259 12.22 23.2585 12.22C23.258 12.22 23.2575 12.22 23.257 12.22C23.2565 12.22 23.256 12.22 23.2555 12.22C23.255 12.22 23.2545 12.22 23.254 12.22C23.2535 12.22 23.253 12.22 23.2525 12.22C23.252 12.22 23.2515 12.22 23.251 12.22C23.2505 12.22 23.25 12.22 23.2495 12.22C23.249 12.22 23.2485 12.22 23.248 12.22C23.2475 12.22 23.247 12.22 23.2465 12.22C23.246 12.22 23.2455 12.22 23.245 12.22C23.2445 12.22 23.244 12.22 23.2435 12.22C23.243 12.22 23.2425 12.22 23.242 12.22C23.2415 12.22 23.241 12.22 23.2405 12.22C23.24 12.22 23.2395 12.22 23.239 12.22C23.2385 12.22 23.238 12.22 23.2375 12.22C23.237 12.22 23.2365 12.22 23.236 12.22C23.2355 12.22 23.235 12.22 23.2345 12.22C23.234 12.22 23.2335 12.22 23.233 12.22C23.2325 12.22 23.232 12.22 23.2315 12.22C23.231 12.22 23.2305 12.22 23.23 12.22C23.2295 12.22 23.229 12.22 23.2285 12.22C23.228 12.22 23.2275 12.22 23.227 12.22C23.2265 12.22 23.226 12.22 23.2255 12.22C23.225 12.22 23.2245 12.22 23.224 12.22C23.2235 12.22 23.223 12.22 23.2225 12.22C23.222 12.22 23.2215 12.22 23.221 12.22C23.2205 12.22 23.22 12.22 23.2195 12.22C23.219 12.22 23.2185 12.22 23.218 12.22C23.2175 12.22 23.217 12.22 23.2165 12.22C23.216 12.22 23.2155 12.22 23.215 12.22C23.2145 12.22 23.214 12.22 23.2135 12.22C23.213 12.22 23.2125 12.22 23.212 12.22C23.2115 12.22 23.211 12.22 23.2105 12.22C23.21 12.22 23.2095 12.22 23.209 12.22C23.2085 12.22 23.208 12.22 23.2075 12.22C23.207 12.22 23.2065 12.22 23.206 12.22C23.2055 12.22 23.205 12.22 23.2045 12.22C23.204 12.22 23.2035 12.22 23.203 12.22C23.2025 12.22 23.202 12.22 23.2015 12.22C23.201 12.22 23.2005 12.22 23.2 12.22C23.1995 12.22 23.199 12.22 23.1985 12.22C23.198 12.22 23.1975 12.22 23.197 12.22C23.1965 12.22 23.196 12.22 23.1955 12.22C23.195 12.22 23.1945 12.22 23.194 12.22C23.1935 12.22 23.193 12.22 23.1925 12.22C23.192 12.22 23.1915 12.22 23.191 12.22C23.1905 12.22 23.19 12.22 23.1895 12.22C23.189 12.22 23.1885 12.22 23.188 12.22C23.1875 12.22 23.187 12.22 23.1865 12.22C23.186 12.22 23.1855 12.22 23.185 12.22C23.1845 12.22 23.184 12.22 23.1835 12.22C23.183 12.22 23.1825 12.22 23.182 12.22C23.1815 12.22 23.181 12.22 23.1805 12.22C23.18 12.22 23.1795 12.22 23.179 12.22C23.1785 12.22 23.178 12.22 23.1775 12.22C23.177 12.22 23.1765 12.22 23.176 12.22C23.1755 12.22 23.175 12.22 23.1745 12.22C23.174 12.22 23.1735 12.22 23.173 12.22C23.1725 12.22 23.172 12.22 23.1715 12.22C23.171 12.22 23.1705 12.22 23.17 12.22C23.1695 12.22 23.169 12.22 23.1685 12.22C23.168 12.22 23.1675 12.22 23.167 12.22C23.1665 12.22 23.166 12.22 23.1655 12.22C23.165 12.22 23.1645 12.22 23.164 12.22C23.1635 12.22 23.163 12.22 23.1625 12.22C23.162 12.22 23.1615 12.22 23.161 12.22C23.1605 12.22 23.16 12.22 23.1595 12.22C23.159 12.22 23.1585 12.22 23.158 12.22C23.1575 12.22 23.157 12.22 23.1565 12.22C23.156 12.22 23.1555 12.22 23.155 12.22C23.1545 12.22 23.154 12.22 23.1535 12.22C23.153 12.22 23.1525 12.22 23.152 12.22C23.1515 12.22 23.151 12.22 23.1505 12.22C23.15 12.22 23.1495 12.22 23.149 12.22C23.1485 12.22 23.148 12.22 23.1475 12.22C23.147 12.22 23.1465 12.22 23.146 12.22C23.1455 12.22 23.145 12.22 23.1445 12.22C23.144 12.22 23.1435 12.22 23.143 12.22C23.1425 12.22 23.142 12.22 23.1415 12.22C23.141 12.22 23.1405 12.22 23.14 12.22C23.1395 12.22 23.139 12.22 23.1385 12.22C23.138 12.22 23.1375 12.22 23.137 12.22C23.1365 12.22 23.136 12.22 23.1355 12.22C23.135 12.22 23.1345 12.22 23.134 12.22C23.1335 12.22 23.133 12.22 23.1325 12.22C23.132 12.22 23.1315 12.22 23.131 12.22C23.1305 12.22 23.13 12.22 23.1295 12.22C23.129 12.22 23.1285 12.22 23.128 12.22C23.1275 12.22 23.127 12.22 23.1265 12.22C23.126 12.22 23.1255 12.22 23.125 12.22C23.1245 12.22 23.124 12.22 23.1235 12.22C23.123 12.22 23.1225 12.22 23.122 12.22C23.1215 12.22 23.121 12.22 23.1205 12.22C23.12 12.22 23.1195 12.22 23.119 12.22C23.1185 12.22 23.118 12.22 23.1175 12.22C23.117 12.22 23.1165 12.22 23.116 12.22C23.1155 12.22 23.115 12.22 23.1145 12.22C23.114 12.22 23.1135 12.22 23.113 12.22C23.1125 12.22 23.112 12.22 23.1115 12.22C23.111 12.22 23.1105 12.22 23.11 12.22C23.1095 12.22 23.109 12.22 23.1085 12.22C23.108 12.22 23.1075 12.22 23.107 12.22C23.1065 12.22 23.106 12.22 23.1055 12.22C23.105 12.22 23.1045 12.22 23.104 12.22C23.1035 12.22 23.103 12.22 23.1025 12.22C23.102 12.22 23.1015 12.22 23.101 12.22C23.1005 12.22 23.1 12.22 23.0995 12.22C23.099 12.22 23.0985 12.22 23.098 12.22C23.0975 12.22 23.097 12.22 23.0965 12.22C23.096 12.22 23.0955 12.22 23.095 12.22C23.0945 12.22 23.094 12.22 23.0935 12.22C23.093 12.22 23.0925 12.22 23.092 12.22C23.0915 12.22 23.091 12.22 23.0905 12.22C23.09 12.22 23.0895 12.22 23.089 12.22C23.0885 12.22 23.088 12.22 23.0875 12.22C23.087 12.22 23.0865 12.22 23.086 12.22C23.0855 12.22 23.085 12.22 23.0845 12.22C23.084 12.22 23.0835 12.22 23.083 12.22C23.0825 12.22 23.082 12.22 23.0815 12.22C23.081 12.22 23.0805 12.22 23.08 12.22C23.0795 12.22 23.079 12.22 23.0785 12.22C23.078 12.22 23.0775 12.22 23.077 12.22C23.0765 12.22 23.076 12.22 23.0755 12.22C23.075 12.22 23.0745 12.22 23.074 12.22C23.0735 12.22 23.073 12.22 23.0725 12.22C23.072 12.22 23.0715 12.22 23.071 12.22C23.0705 12.22 23.07 12.22 23.0695 12.22C23.069 12.22 23.0685 12.22 23.068 12.22C23.0675 12.22 23.067 12.22 23.0665 12.22C23.066 12.22 23.0655 12.22 23.065 12.22C23.0645 12.22 23.064 12.22 23.0635 12.22C23.063 12.22 23.0625 12.22 23.062 12.22C23.0615 12.22 23.061 12.22 23.0605 12.22C23.06 12.22 23.0595 12.22 23.059 12.22C23.0585 12.22 23.058 12.22 23.0575 12.22C23.057 12.22 23.0565 12.22 23.056 12.22C23.0555 12.22 23.055 12.22 23.0545 12.22C23.054 12.22 23.0535 12.22 23.053 12.22C23.0525 12.22 23.052 12.22 23.0515 12.22C23.051 12.22 23.0505 12.22 23.05 12.22C23.0495 12.22 23.049 12.22 23.0485 12.22C23.048 12.22 23.0475 12.22 23.047 12.22C23.0465 12.22 23.046 12.22 23.0455 12.22C23.045 12.22 23.0445 12.22 23.044 12.22C23.0435 12.22 23.043 12.22 23.0425 12.22C23.042 12.22 23.0415 12.22 23.041 12.22C23.0405 12.22 23.04 12.22 23.0395 12.22C23.039 12.22 23.0385 12.22 23.038 12.22C23.0375 12.22 23.037 12.22 23.0365 12.22C23.036 12.22 23.0355 12.22 23.035 12.22C23.0345 12.22 23.034 12.22 23.0335 12.22C23.033 12.22 23.0325 12.22 23.032 12.22C23.0315 12.22 23.031 12.22 23.0305 12.22C23.03 12.22 23.0295 12.22 23.029 12.22C23.0285 12.22 23.028 12.22 23.0275 12.22C23.027 12.22 23.0265 12.22 23.026 12.22C23.0255 12.22 23.025 12.22 23.0245 12.22C23.024 12.22 23.0235 12.22 23.023 12.22C23.0225 12.22 23.022 12.22 23.0215 12.22C23.021 12.22 23.0205 12.22 23.02 12.22C23.0195 12.22 23.019 12.22 23.0185 12.22C23.018 12.22 23.0175 12.22 23.017 12.22C23.0165 12.22 23.016 12.22 23.0155 12.22C23.015 12.22 23.0145 12.22 23.014 12.22C23.0135 12.22 23.013 12.22 23.0125 12.22C23.012 12.22 23.0115 12.22 23.011 12.22C23.0105 12.22 23.01 12.22 23.0095 12.22C23.009 12.22 23.0085 12.22 23.008 12.22C23.0075 12.22 23.007 12.22 23.0065 12.22C23.006 12.22 23.0055 12.22 23.005 12.22C23.0045 12.22 23.004 12.22 23.0035 12.22C23.003 12.22 23.0025 12.22 23.002 12.22C23.0015 12.22 23.001 12.22 23.0005 12.22C23 12.22 22.9995 12.22 22.999 12.22C22.9985 12.22 22.998 12.22 22.9975 12.22C22.997 12.22 22.9965 12.22 22.996 12.22C22.9955 12.22 22.995 12.22 22.9945 12.22C22.994 12.22 22.9935 12.22 22.993 12.22C22.9925 12.22 22.992 12.22 22.9915 12.22C22.991 12.22 22.9905 12.22 22.99 12.22C22.9895 12.22 22.989 12.22 22.9885 12.22C22.988 12.22 22.9875 12.22 22.987 12.22C22.9865 12.22 22.986 12.22 22.9855 12.22C22.985 12.22 22.9845 12.22 22.984 12.22C22.9835 12.22 22.983 12.22 22.9825 12.22C22.982 12.22 22.9815 12.22 22.981 12.22C22.9805 12.22 22.98 12.22 22.9795 12.22C22.979 12.22 22.9785 12.22 22.978 12.22C22.9775 12.22 22.977 12.22 22.9765 12.22C22.976 12.22 22.9755 12.22 22.975 12.22C22.9745 12.22 22.974 12.22 22.9735 12.22C22.973 12.22 22.9725 12.22 22.972 12.22C22.9715 12.22 22.971 12.22 22.9705 12.22C22.97 12.22 22.9695 12.22 22.969 12.22C22.9685 12.22 22.968 12.22 22.9675 12.22C22.967 12.22 22.9665 12.22 22.966 12.22C22.9655 12.22 22.965 12.22 22.9645 12.22C22.964 12.22 22.9635 12.22 22.963 12.22C22.9625 12.22 22.962 12.22 22.9615 12.22C22.961 12.22 22.9605 12.22 22.96 12.22C22.9595 12.22 22.959 12.22 22.9585 12.22C22.958 12.22 22.9575 12.22 22.957 12.22C22.9565 12.22 22.956 12.22 22.9555 12.22C22.955 12.22 22.9545 12.22 22.954 12.22C22.9535 12.22 22.953 12.22 22.9525 12.22C22.952 12.22 22.9515 12.22 22.951 12.22C22.9505 12.22 22.95 12.22 22.9495 12.22C22.949 12.22 22.9485 12.22 22.948 12.22C22.9475 12.22 22.947 12.22 22.9465 12.22C22.946 12.22 22.9455 12.22 22.945 12.22C22.9445 12.22 22.944 12.22 22.9435 12.22C22.943 12.22 22.9425 12.22 22.942 12.22C22.9415 12.22 22.941 12.22 22.9405 12.22C22.94 12.22 22.9395 12.22 22.939 12.22C22.9385 12.22 22.938 12.22 22.9375 12.22C22.937 12.22 22.9365 12.22 22.936 12.22C22.9355 12.22 22.935 12.22 22.9345 12.22C22.934 12.22 22.9335 12.22 22.933 12.22C22.9325 12.22 22.932 12.22 22.9315 12.22C22.931 12.22 22.9305 12.22 22.93 12.22C22.9295 12.22 22.929 12.22 22.9285 12.22C22.928 12.22 22.9275 12.22 22.927 12.22C22.9265 12.22 22.926 12.22 22.9255 12.22C22.925 12.22 22.9245 12.22 22.924 12.22C22.9235 12.22 22.923 12.22 22.9225 12.22C22.922 12.22 22.9215 12.22 22.921 12.22C22.9205 12.22 22.92 12.22 22.9195 12.22C22.919 12.22 22.9185 12.22 22.918 12.22C22.9175 12.22 22.917 12.22 22.9165 12.22C22.916 12.22 22.9155 12.22 22.915 12.22C22.9145 12.22 22.914 12.22 22.9135 12.22C22.913 12.22 22.9125 12.22 22.912 12.22C22.9115 12.22 22.911 12.22 22.9105 12.22C22.91 12.22 22.9095 12.22 22.909 12.22C22.9085 12.22 22.908 12.22 22.9075 12.22C22.907 12.22 22.9065 12.22 22.906 12.22C22.9055 12.22 22.905 12.22 22.9045 12.22C22.904 12.22 22.9035 12.22 22.903 12.22C22.9025 12.22 22.902 12.22 22.9015 12.22C22.901 12.22 22.9005 12.22 22.9 12.22C22.8995 12.22 22.899 12.22 22.8985 12.22C22.898 12.22 22.8975 12.22 22.897 12.22C22.8965 12.22 22.896 12.22 22.8955 12.22C22.895 12.22 22.8945 12.22 22.894 12.22C22.8935 12.22 22.893 12.22 22.8925 12.22C22.892 12.22 22.8915 12.22 22.891 12.22C22.8905 12.22 22.89 12.22 22.8895 12.22C22.889 12.22 22.8885 12.22 22.888 12.22C22.8875 12.22 22.887 12.22 22.8865 12.22C22.886 12.22 22.8855 12.22 22.885 12.22C22.8845 12.22 22.884 12.22 22.8835 12.22C22.883 12.22 22.8825 12.22 22.882 12.22C22.8815 12.22 22.881 12.22 22.8805 12.22C22.88 12.22 22.8795 12.22 22.879 12.22C22.8785 12.22 22.878 12.22 22.8775 12.22C22.877 12.22 22.8765 12.22 22.876 12.22C22.8755 12.22 22.875 12.22 22.8745 12.22C22.874 12.22 22.8735 12.22 22.873 12.22C22.8725 12.22 22.872 12.22 22.8715 12.22C22.871 12.22 22.8705 12.22 22.87 12.22C22.8695 12.22 22.869 12.22 22.8685 12.22C22.868 12.22 22.8675 12.22 22.867 12.22C22.8665 12.22 22.866 12.22 22.8655 12.22C22.865 12.22 22.8645 12.22 22.864 12.22C22.8635 12.22 22.863 12.22 22.8625 12.22C22.862 12.22 22.8615 12.22 22.861 12.22C22.8605 12.22 22.86 12.22 22.8595 12.22C22.859 12.22 22.8585 12.22 22.858 12.22C22.8575 12.22 22.857 12.22 22.8565 12.22C22.856 12.22 22.8555 12.22 22.855 12.22C22.8545 12.22 22.854 12.22 22.8535 12.22C22.853 12.22 22.8525 12.22 22.852 12.22C22.8515 12.22 22.851 12.22 22.8505 12.22C22.85 12.22 22.8495 12.22 22.849 12.22C22.8485 12.22 22.848 12.22 22.8475 12.22C22.847 12.22 22.8465 12.22 22.846 12.22C22.8455 12.22 22.845 12.22 22.8445 12.22C22.844 12.22 22.8435 12.22 22.843 12.22C22.8425 12.22 22.842 12.22 22.8415 12.22C22.841 12.22 22.8405 12.22 22.84 12.22C22.8395 12.22 22.839 12.22 22.8385 12.22C22.838 12.22 22.8375 12.22 22.837 12.22C22.8365 12.22 22.836 12.22 22.8355 12.22C22.835 12.22 22.8345 12.22 22.834 12.22C22.8335 12.22 22.833 12.22 22.8325 12.22C22.832 12.22 22.8315 12.22 22.831 12.22C22.8305 12.22 22.83 12.22 22.8295 12.22C22.829 12.22 22.8285 12.22 22.828 12.22C22.8275 12.22 22.827 12.22 22.8265 12.22C22.826 12.22 22.8255 12.22 22.825 12.22C22.8245 12.22 22.824 12.22 22.8235 12.22C22.823 12.22 22.8225 12.22 22.822 12.22C22.8215 12.22 22.821 12.22 22.8205 12.22C22.82 12.22 22.8195 12.22 22.819 12.22C22.8185 12.22 22.818 12.22 22.8175 12.22C22.817 12.22 22.8165 12.22 22.816 12.22C22.8155 12.22 22.815 12.22 22.8145 12.22C22.814 12.22 22.8135 12.22 22.813 12.22C22.8125 12.22 22.812 12.22 22.8115 12.22C22.811 12.22 22.8105 12.22 22.81 12.22C22.8095 12.22 22.809 12.22 22.8085 12.22C22.808 12.22 22.8075 12.22 22.807 12.22C22.8065 12.22 22.806 12.22 22.8055 12.22C22.805 12.22 22.8045 12.22 22.804 12.22C22.8035 12.22 22.803 12.22 22.8025 12.22C22.802 12.22 22.8015 12.22 22.801 12.22C22.8005 12.22 22.8 12.22 22.7995 12.22C22.799 12.22 22.7985 12.22 22.798 12.22C22.7975 12.22 22.797 12.22 22.7965 12.22C22.796 12.22 22.7955 12.22 22.795 12.22C22.7945 12.22 22.794 12.22 22.7935 12.22C22.793 12.22 22.7925 12.22 22.792 12.22C22.7915 12.22 22.791 12.22 22.7905 12.22C22.79 12.22 22.7895 12.22 22.789 12.22C22.7885 12.22 22.788 12.22 22.7875 12.22C22.787 12.22 22.7865 12.22 22.786 12.22C22.7855 12.22 22.785 12.22 22.7845 12.22C22.784 12.22 22.7835 12.22 22.783 12.22C22.7825 12.22 22.782 12.22 22.7815 12.22C22.781 12.22 22.7805 12.22 22.78 12.22C22.7795 12.22 22.779 12.22 22.7785 12.22C22.778 12.22 22.7775 12.22 22.777 12.22C22.7765 12.22 22.776 12.22 22.7755 12.22C22.775 12.22 22.7745 12.22 22.774 12.22C22.7735 12.22 22.773 12.22 22.7725 12.22C22.772 12.22 22.7715 12.22 22.771 12.22C22.7705 12.22 22.77 12.22 22.7695 12.22C22.769 12.22 22.7685 12.22 22.768 12.22C22.7675 12.22 22.767 12.22 22.7665 12.22C22.766 12.22 22.7655 12.22 22.765 12.22C22.7645 12.22 22.764 12.22 22.7635 12.22C22.763 12.22 22.7625 12.22 22.762 12.22C22.7615 12.22 22.761 12.22 22.7605 12.22C22.76 12.22 22.7595 12.22 22.759 12.22C22.7585 12.22 22.758 12.22 22.7575 12.22C22.757 12.22 22.7565 12.22 22.756 12.22C22.7555 12.22 22.755 12.22 22.7545 12.22C22.754 12.22 22.7535 12.22 22.753 12.22C22.7525 12.22 22.752 12.22 22.7515 12.22C22.751 12.22 22.7505 12.22 22.75 12.22C22.7495 12.22 22.749 12.22 22.7485 12.22C22.748 12.22 22.7475 12.22 22.747 12.22C22.7465 12.22 22.746 12.22 22.7455 12.22C22.745 12.22 22.7445 12.22 22.744 12.22C22.7435 12.22 22.743 12.22 22.7425 12.22C22.742 12.22 22.7415 12.22 22.741 12.22C22.7405 12.22 22.74 12.22 22.7395 12.22C22.739 12.22 22.7385 12.22 22.738 12.22C22.7375 12.22 22.737 12.22 22.7365 12.22C22.736 12.22 22.7355 12.22 22.735 12.22C22.7345 12.22 22.734 12.22 22.7335 12.22C22.733 12.22 22.7325 12.22 22.732 12.22C22.7315 12.22 22.731 12.22 22.7305 12.22C22.73 12.22 22.7295 12.22 22.729 12.22C22.7285 12.22 22.728 12.22 22.7275 12.22C22.727 12.22 22.7265 12.22 22.726 12.22C22.7255 12.22 22.725 12.22 22.7245 12.22C22.724 12.22 22.7235 12.22 22.723 12.22C22.7225 12.22 22.722 12.22 22.7215 12.22C22.721 12.22 22.7205 12.22 22.72 12.22C22.7195 12.22 22.719 12.22 22.7185 12.22C22.718 12.22 22.7175 12.22 22.717 12.22C22.7165 12.22 22.716 12.22 22.7155 12.22C22.715 12.22 22.7145 12.22 22.714 12.22C22.7135 12.22 22.713 12.22 22.7125 12.22C22.712 12.22 22.7115 12.22 22.711 12.22C22.7105 12.22 22.71 12.22 22.7095 12.22C22.709 12.22 22.7085 12.22 22.708 12.22C22.7075 12.22 22.707 12.22 22.7065 12.22C22.706 12.22 22.7055 12.22 22.705 12.22C22.7045 12.22 22.704 12.22 22.7035 12.22C22.703 12.22 22.7025 12.22 22.702 12.22C22.7015 12.22 22.701 12.22 22.7005 12.22C22.7 12.22 22.6995 12.22 22.699 12.22C22.6985 12.22 22.698 12.22 22.6975 12.22C22.697 12.22 22.6965 12.22 22.696 12.22C22.6955 12.22 22.695 12.22 22.6945 12.22C22.694 12.22 22.6935 12.22 22.693 12.22C22.6925 12.22 22.692 12.22 22.6915 12.22C22.691 12.22 22.6905 12.22 22.69 12.22C22.6895 12.22 22.689 12.22 22.6885 12.22C22.688 12.22 22.6875 12.22 22.687 12.22C22.6865 12.22 22.686 12.22 22.6855 12.22C22.685 12.22 22.6845 12.22 22.684 12.22C22.6835 12.22 22.683 12.22 22.6825 12.22C22.682 12.22 22.6815 12.22 22.681 12.22C22.6805 12.22 22.68 12.22 22.6795 12.22C22.679 12.22 22.6785 12.22 22.678 12.22C22.6775 12.22 22.677 12.22 22.6765 12.22C22.676 12.22 22.6755 12.22 22.675 12.22C22.6745 12.22 22.674 12.22 22.6735 12.22C22.673 12.22 22.6725 12.22 22.672 12.22V13.22C22.6725 13.22 22.673 13.22 22.6735 13.22C22.674 13.22 22.6745 13.22 22.675 13.22C22.6755 13.22 22.676 13.22 22.6765 13.22C22.677 13.22 22.6775 13.22 22.678 13.22C22.6785 13.22 22.679 13.22 22.6795 13.22C22.68 13.22 22.6805 13.22 22.681 13.22C22.6815 13.22 22.682 13.22 22.6825 13.22C22.683 13.22 22.6835 13.22 22.684 13.22C22.6845 13.22 22.685 13.22 22.6855 13.22C22.686 13.22 22.6865 13.22 22.687 13.22C22.6875 13.22 22.688 13.22 22.6885 13.22C22.689 13.22 22.6895 13.22 22.69 13.22C22.6905 13.22 22.691 13.22 22.6915 13.22C22.692 13.22 22.6925 13.22 22.693 13.22C22.6935 13.22 22.694 13.22 22.6945 13.22C22.695 13.22 22.6955 13.22 22.696 13.22C22.6965 13.22 22.697 13.22 22.6975 13.22C22.698 13.22 22.6985 13.22 22.699 13.22C22.6995 13.22 22.7 13.22 22.7005 13.22C22.701 13.22 22.7015 13.22 22.702 13.22C22.7025 13.22 22.703 13.22 22.7035 13.22C22.704 13.22 22.7045 13.22 22.705 13.22C22.7055 13.22 22.706 13.22 22.7065 13.22C22.707 13.22 22.7075 13.22 22.708 13.22C22.7085 13.22 22.709 13.22 22.7095 13.22C22.71 13.22 22.7105 13.22 22.711 13.22C22.7115 13.22 22.712 13.22 22.7125 13.22C22.713 13.22 22.7135 13.22 22.714 13.22C22.7145 13.22 22.715 13.22 22.7155 13.22C22.716 13.22 22.7165 13.22 22.717 13.22C22.7175 13.22 22.718 13.22 22.7185 13.22C22.719 13.22 22.7195 13.22 22.72 13.22C22.7205 13.22 22.721 13.22 22.7215 13.22C22.722 13.22 22.7225 13.22 22.723 13.22C22.7235 13.22 22.724 13.22 22.7245 13.22C22.725 13.22 22.7255 13.22 22.726 13.22C22.7265 13.22 22.727 13.22 22.7275 13.22C22.728 13.22 22.7285 13.22 22.729 13.22C22.7295 13.22 22.73 13.22 22.7305 13.22C22.731 13.22 22.7315 13.22 22.732 13.22C22.7325 13.22 22.733 13.22 22.7335 13.22C22.734 13.22 22.7345 13.22 22.735 13.22C22.7355 13.22 22.736 13.22 22.7365 13.22C22.737 13.22 22.7375 13.22 22.738 13.22C22.7385 13.22 22.739 13.22 22.7395 13.22C22.74 13.22 22.7405 13.22 22.741 13.22C22.7415 13.22 22.742 13.22 22.7425 13.22C22.743 13.22 22.7435 13.22 22.744 13.22C22.7445 13.22 22.745 13.22 22.7455 13.22C22.746 13.22 22.7465 13.22 22.747 13.22C22.7475 13.22 22.748 13.22 22.7485 13.22C22.749 13.22 22.7495 13.22 22.75 13.22C22.7505 13.22 22.751 13.22 22.7515 13.22C22.752 13.22 22.7525 13.22 22.753 13.22C22.7535 13.22 22.754 13.22 22.7545 13.22C22.755 13.22 22.7555 13.22 22.756 13.22C22.7565 13.22 22.757 13.22 22.7575 13.22C22.758 13.22 22.7585 13.22 22.759 13.22C22.7595 13.22 22.76 13.22 22.7605 13.22C22.761 13.22 22.7615 13.22 22.762 13.22C22.7625 13.22 22.763 13.22 22.7635 13.22C22.764 13.22 22.7645 13.22 22.765 13.22C22.7655 13.22 22.766 13.22 22.7665 13.22C22.767 13.22 22.7675 13.22 22.768 13.22C22.7685 13.22 22.769 13.22 22.7695 13.22C22.77 13.22 22.7705 13.22 22.771 13.22C22.7715 13.22 22.772 13.22 22.7725 13.22C22.773 13.22 22.7735 13.22 22.774 13.22C22.7745 13.22 22.775 13.22 22.7755 13.22C22.776 13.22 22.7765 13.22 22.777 13.22C22.7775 13.22 22.778 13.22 22.7785 13.22C22.779 13.22 22.7795 13.22 22.78 13.22C22.7805 13.22 22.781 13.22 22.7815 13.22C22.782 13.22 22.7825 13.22 22.783 13.22C22.7835 13.22 22.784 13.22 22.7845 13.22C22.785 13.22 22.7855 13.22 22.786 13.22C22.7865 13.22 22.787 13.22 22.7875 13.22C22.788 13.22 22.7885 13.22 22.789 13.22C22.7895 13.22 22.79 13.22 22.7905 13.22C22.791 13.22 22.7915 13.22 22.792 13.22C22.7925 13.22 22.793 13.22 22.7935 13.22C22.794 13.22 22.7945 13.22 22.795 13.22C22.7955 13.22 22.796 13.22 22.7965 13.22C22.797 13.22 22.7975 13.22 22.798 13.22C22.7985 13.22 22.799 13.22 22.7995 13.22C22.8 13.22 22.8005 13.22 22.801 13.22C22.8015 13.22 22.802 13.22 22.8025 13.22C22.803 13.22 22.8035 13.22 22.804 13.22C22.8045 13.22 22.805 13.22 22.8055 13.22C22.806 13.22 22.8065 13.22 22.807 13.22C22.8075 13.22 22.808 13.22 22.8085 13.22C22.809 13.22 22.8095 13.22 22.81 13.22C22.8105 13.22 22.811 13.22 22.8115 13.22C22.812 13.22 22.8125 13.22 22.813 13.22C22.8135 13.22 22.814 13.22 22.8145 13.22C22.815 13.22 22.8155 13.22 22.816 13.22C22.8165 13.22 22.817 13.22 22.8175 13.22C22.818 13.22 22.8185 13.22 22.819 13.22C22.8195 13.22 22.82 13.22 22.8205 13.22C22.821 13.22 22.8215 13.22 22.822 13.22C22.8225 13.22 22.823 13.22 22.8235 13.22C22.824 13.22 22.8245 13.22 22.825 13.22C22.8255 13.22 22.826 13.22 22.8265 13.22C22.827 13.22 22.8275 13.22 22.828 13.22C22.8285 13.22 22.829 13.22 22.8295 13.22C22.83 13.22 22.8305 13.22 22.831 13.22C22.8315 13.22 22.832 13.22 22.8325 13.22C22.833 13.22 22.8335 13.22 22.834 13.22C22.8345 13.22 22.835 13.22 22.8355 13.22C22.836 13.22 22.8365 13.22 22.837 13.22C22.8375 13.22 22.838 13.22 22.8385 13.22C22.839 13.22 22.8395 13.22 22.84 13.22C22.8405 13.22 22.841 13.22 22.8415 13.22C22.842 13.22 22.8425 13.22 22.843 13.22C22.8435 13.22 22.844 13.22 22.8445 13.22C22.845 13.22 22.8455 13.22 22.846 13.22C22.8465 13.22 22.847 13.22 22.8475 13.22C22.848 13.22 22.8485 13.22 22.849 13.22C22.8495 13.22 22.85 13.22 22.8505 13.22C22.851 13.22 22.8515 13.22 22.852 13.22C22.8525 13.22 22.853 13.22 22.8535 13.22C22.854 13.22 22.8545 13.22 22.855 13.22C22.8555 13.22 22.856 13.22 22.8565 13.22C22.857 13.22 22.8575 13.22 22.858 13.22C22.8585 13.22 22.859 13.22 22.8595 13.22C22.86 13.22 22.8605 13.22 22.861 13.22C22.8615 13.22 22.862 13.22 22.8625 13.22C22.863 13.22 22.8635 13.22 22.864 13.22C22.8645 13.22 22.865 13.22 22.8655 13.22C22.866 13.22 22.8665 13.22 22.867 13.22C22.8675 13.22 22.868 13.22 22.8685 13.22C22.869 13.22 22.8695 13.22 22.87 13.22C22.8705 13.22 22.871 13.22 22.8715 13.22C22.872 13.22 22.8725 13.22 22.873 13.22C22.8735 13.22 22.874 13.22 22.8745 13.22C22.875 13.22 22.8755 13.22 22.876 13.22C22.8765 13.22 22.877 13.22 22.8775 13.22C22.878 13.22 22.8785 13.22 22.879 13.22C22.8795 13.22 22.88 13.22 22.8805 13.22C22.881 13.22 22.8815 13.22 22.882 13.22C22.8825 13.22 22.883 13.22 22.8835 13.22C22.884 13.22 22.8845 13.22 22.885 13.22C22.8855 13.22 22.886 13.22 22.8865 13.22C22.887 13.22 22.8875 13.22 22.888 13.22C22.8885 13.22 22.889 13.22 22.8895 13.22C22.89 13.22 22.8905 13.22 22.891 13.22C22.8915 13.22 22.892 13.22 22.8925 13.22C22.893 13.22 22.8935 13.22 22.894 13.22C22.8945 13.22 22.895 13.22 22.8955 13.22C22.896 13.22 22.8965 13.22 22.897 13.22C22.8975 13.22 22.898 13.22 22.8985 13.22C22.899 13.22 22.8995 13.22 22.9 13.22C22.9005 13.22 22.901 13.22 22.9015 13.22C22.902 13.22 22.9025 13.22 22.903 13.22C22.9035 13.22 22.904 13.22 22.9045 13.22C22.905 13.22 22.9055 13.22 22.906 13.22C22.9065 13.22 22.907 13.22 22.9075 13.22C22.908 13.22 22.9085 13.22 22.909 13.22C22.9095 13.22 22.91 13.22 22.9105 13.22C22.911 13.22 22.9115 13.22 22.912 13.22C22.9125 13.22 22.913 13.22 22.9135 13.22C22.914 13.22 22.9145 13.22 22.915 13.22C22.9155 13.22 22.916 13.22 22.9165 13.22C22.917 13.22 22.9175 13.22 22.918 13.22C22.9185 13.22 22.919 13.22 22.9195 13.22C22.92 13.22 22.9205 13.22 22.921 13.22C22.9215 13.22 22.922 13.22 22.9225 13.22C22.923 13.22 22.9235 13.22 22.924 13.22C22.9245 13.22 22.925 13.22 22.9255 13.22C22.926 13.22 22.9265 13.22 22.927 13.22C22.9275 13.22 22.928 13.22 22.9285 13.22C22.929 13.22 22.9295 13.22 22.93 13.22C22.9305 13.22 22.931 13.22 22.9315 13.22C22.932 13.22 22.9325 13.22 22.933 13.22C22.9335 13.22 22.934 13.22 22.9345 13.22C22.935 13.22 22.9355 13.22 22.936 13.22C22.9365 13.22 22.937 13.22 22.9375 13.22C22.938 13.22 22.9385 13.22 22.939 13.22C22.9395 13.22 22.94 13.22 22.9405 13.22C22.941 13.22 22.9415 13.22 22.942 13.22C22.9425 13.22 22.943 13.22 22.9435 13.22C22.944 13.22 22.9445 13.22 22.945 13.22C22.9455 13.22 22.946 13.22 22.9465 13.22C22.947 13.22 22.9475 13.22 22.948 13.22C22.9485 13.22 22.949 13.22 22.9495 13.22C22.95 13.22 22.9505 13.22 22.951 13.22C22.9515 13.22 22.952 13.22 22.9525 13.22C22.953 13.22 22.9535 13.22 22.954 13.22C22.9545 13.22 22.955 13.22 22.9555 13.22C22.956 13.22 22.9565 13.22 22.957 13.22C22.9575 13.22 22.958 13.22 22.9585 13.22C22.959 13.22 22.9595 13.22 22.96 13.22C22.9605 13.22 22.961 13.22 22.9615 13.22C22.962 13.22 22.9625 13.22 22.963 13.22C22.9635 13.22 22.964 13.22 22.9645 13.22C22.965 13.22 22.9655 13.22 22.966 13.22C22.9665 13.22 22.967 13.22 22.9675 13.22C22.968 13.22 22.9685 13.22 22.969 13.22C22.9695 13.22 22.97 13.22 22.9705 13.22C22.971 13.22 22.9715 13.22 22.972 13.22C22.9725 13.22 22.973 13.22 22.9735 13.22C22.974 13.22 22.9745 13.22 22.975 13.22C22.9755 13.22 22.976 13.22 22.9765 13.22C22.977 13.22 22.9775 13.22 22.978 13.22C22.9785 13.22 22.979 13.22 22.9795 13.22C22.98 13.22 22.9805 13.22 22.981 13.22C22.9815 13.22 22.982 13.22 22.9825 13.22C22.983 13.22 22.9835 13.22 22.984 13.22C22.9845 13.22 22.985 13.22 22.9855 13.22C22.986 13.22 22.9865 13.22 22.987 13.22C22.9875 13.22 22.988 13.22 22.9885 13.22C22.989 13.22 22.9895 13.22 22.99 13.22C22.9905 13.22 22.991 13.22 22.9915 13.22C22.992 13.22 22.9925 13.22 22.993 13.22C22.9935 13.22 22.994 13.22 22.9945 13.22C22.995 13.22 22.9955 13.22 22.996 13.22C22.9965 13.22 22.997 13.22 22.9975 13.22C22.998 13.22 22.9985 13.22 22.999 13.22C22.9995 13.22 23 13.22 23.0005 13.22C23.001 13.22 23.0015 13.22 23.002 13.22C23.0025 13.22 23.003 13.22 23.0035 13.22C23.004 13.22 23.0045 13.22 23.005 13.22C23.0055 13.22 23.006 13.22 23.0065 13.22C23.007 13.22 23.0075 13.22 23.008 13.22C23.0085 13.22 23.009 13.22 23.0095 13.22C23.01 13.22 23.0105 13.22 23.011 13.22C23.0115 13.22 23.012 13.22 23.0125 13.22C23.013 13.22 23.0135 13.22 23.014 13.22C23.0145 13.22 23.015 13.22 23.0155 13.22C23.016 13.22 23.0165 13.22 23.017 13.22C23.0175 13.22 23.018 13.22 23.0185 13.22C23.019 13.22 23.0195 13.22 23.02 13.22C23.0205 13.22 23.021 13.22 23.0215 13.22C23.022 13.22 23.0225 13.22 23.023 13.22C23.0235 13.22 23.024 13.22 23.0245 13.22C23.025 13.22 23.0255 13.22 23.026 13.22C23.0265 13.22 23.027 13.22 23.0275 13.22C23.028 13.22 23.0285 13.22 23.029 13.22C23.0295 13.22 23.03 13.22 23.0305 13.22C23.031 13.22 23.0315 13.22 23.032 13.22C23.0325 13.22 23.033 13.22 23.0335 13.22C23.034 13.22 23.0345 13.22 23.035 13.22C23.0355 13.22 23.036 13.22 23.0365 13.22C23.037 13.22 23.0375 13.22 23.038 13.22C23.0385 13.22 23.039 13.22 23.0395 13.22C23.04 13.22 23.0405 13.22 23.041 13.22C23.0415 13.22 23.042 13.22 23.0425 13.22C23.043 13.22 23.0435 13.22 23.044 13.22C23.0445 13.22 23.045 13.22 23.0455 13.22C23.046 13.22 23.0465 13.22 23.047 13.22C23.0475 13.22 23.048 13.22 23.0485 13.22C23.049 13.22 23.0495 13.22 23.05 13.22C23.0505 13.22 23.051 13.22 23.0515 13.22C23.052 13.22 23.0525 13.22 23.053 13.22C23.0535 13.22 23.054 13.22 23.0545 13.22C23.055 13.22 23.0555 13.22 23.056 13.22C23.0565 13.22 23.057 13.22 23.0575 13.22C23.058 13.22 23.0585 13.22 23.059 13.22C23.0595 13.22 23.06 13.22 23.0605 13.22C23.061 13.22 23.0615 13.22 23.062 13.22C23.0625 13.22 23.063 13.22 23.0635 13.22C23.064 13.22 23.0645 13.22 23.065 13.22C23.0655 13.22 23.066 13.22 23.0665 13.22C23.067 13.22 23.0675 13.22 23.068 13.22C23.0685 13.22 23.069 13.22 23.0695 13.22C23.07 13.22 23.0705 13.22 23.071 13.22C23.0715 13.22 23.072 13.22 23.0725 13.22C23.073 13.22 23.0735 13.22 23.074 13.22C23.0745 13.22 23.075 13.22 23.0755 13.22C23.076 13.22 23.0765 13.22 23.077 13.22C23.0775 13.22 23.078 13.22 23.0785 13.22C23.079 13.22 23.0795 13.22 23.08 13.22C23.0805 13.22 23.081 13.22 23.0815 13.22C23.082 13.22 23.0825 13.22 23.083 13.22C23.0835 13.22 23.084 13.22 23.0845 13.22C23.085 13.22 23.0855 13.22 23.086 13.22C23.0865 13.22 23.087 13.22 23.0875 13.22C23.088 13.22 23.0885 13.22 23.089 13.22C23.0895 13.22 23.09 13.22 23.0905 13.22C23.091 13.22 23.0915 13.22 23.092 13.22C23.0925 13.22 23.093 13.22 23.0935 13.22C23.094 13.22 23.0945 13.22 23.095 13.22C23.0955 13.22 23.096 13.22 23.0965 13.22C23.097 13.22 23.0975 13.22 23.098 13.22C23.0985 13.22 23.099 13.22 23.0995 13.22C23.1 13.22 23.1005 13.22 23.101 13.22C23.1015 13.22 23.102 13.22 23.1025 13.22C23.103 13.22 23.1035 13.22 23.104 13.22C23.1045 13.22 23.105 13.22 23.1055 13.22C23.106 13.22 23.1065 13.22 23.107 13.22C23.1075 13.22 23.108 13.22 23.1085 13.22C23.109 13.22 23.1095 13.22 23.11 13.22C23.1105 13.22 23.111 13.22 23.1115 13.22C23.112 13.22 23.1125 13.22 23.113 13.22C23.1135 13.22 23.114 13.22 23.1145 13.22C23.115 13.22 23.1155 13.22 23.116 13.22C23.1165 13.22 23.117 13.22 23.1175 13.22C23.118 13.22 23.1185 13.22 23.119 13.22C23.1195 13.22 23.12 13.22 23.1205 13.22C23.121 13.22 23.1215 13.22 23.122 13.22C23.1225 13.22 23.123 13.22 23.1235 13.22C23.124 13.22 23.1245 13.22 23.125 13.22C23.1255 13.22 23.126 13.22 23.1265 13.22C23.127 13.22 23.1275 13.22 23.128 13.22C23.1285 13.22 23.129 13.22 23.1295 13.22C23.13 13.22 23.1305 13.22 23.131 13.22C23.1315 13.22 23.132 13.22 23.1325 13.22C23.133 13.22 23.1335 13.22 23.134 13.22C23.1345 13.22 23.135 13.22 23.1355 13.22C23.136 13.22 23.1365 13.22 23.137 13.22C23.1375 13.22 23.138 13.22 23.1385 13.22C23.139 13.22 23.1395 13.22 23.14 13.22C23.1405 13.22 23.141 13.22 23.1415 13.22C23.142 13.22 23.1425 13.22 23.143 13.22C23.1435 13.22 23.144 13.22 23.1445 13.22C23.145 13.22 23.1455 13.22 23.146 13.22C23.1465 13.22 23.147 13.22 23.1475 13.22C23.148 13.22 23.1485 13.22 23.149 13.22C23.1495 13.22 23.15 13.22 23.1505 13.22C23.151 13.22 23.1515 13.22 23.152 13.22C23.1525 13.22 23.153 13.22 23.1535 13.22C23.154 13.22 23.1545 13.22 23.155 13.22C23.1555 13.22 23.156 13.22 23.1565 13.22C23.157 13.22 23.1575 13.22 23.158 13.22C23.1585 13.22 23.159 13.22 23.1595 13.22C23.16 13.22 23.1605 13.22 23.161 13.22C23.1615 13.22 23.162 13.22 23.1625 13.22C23.163 13.22 23.1635 13.22 23.164 13.22C23.1645 13.22 23.165 13.22 23.1655 13.22C23.166 13.22 23.1665 13.22 23.167 13.22C23.1675 13.22 23.168 13.22 23.1685 13.22C23.169 13.22 23.1695 13.22 23.17 13.22C23.1705 13.22 23.171 13.22 23.1715 13.22C23.172 13.22 23.1725 13.22 23.173 13.22C23.1735 13.22 23.174 13.22 23.1745 13.22C23.175 13.22 23.1755 13.22 23.176 13.22C23.1765 13.22 23.177 13.22 23.1775 13.22C23.178 13.22 23.1785 13.22 23.179 13.22C23.1795 13.22 23.18 13.22 23.1805 13.22C23.181 13.22 23.1815 13.22 23.182 13.22C23.1825 13.22 23.183 13.22 23.1835 13.22C23.184 13.22 23.1845 13.22 23.185 13.22C23.1855 13.22 23.186 13.22 23.1865 13.22C23.187 13.22 23.1875 13.22 23.188 13.22C23.1885 13.22 23.189 13.22 23.1895 13.22C23.19 13.22 23.1905 13.22 23.191 13.22C23.1915 13.22 23.192 13.22 23.1925 13.22C23.193 13.22 23.1935 13.22 23.194 13.22C23.1945 13.22 23.195 13.22 23.1955 13.22C23.196 13.22 23.1965 13.22 23.197 13.22C23.1975 13.22 23.198 13.22 23.1985 13.22C23.199 13.22 23.1995 13.22 23.2 13.22C23.2005 13.22 23.201 13.22 23.2015 13.22C23.202 13.22 23.2025 13.22 23.203 13.22C23.2035 13.22 23.204 13.22 23.2045 13.22C23.205 13.22 23.2055 13.22 23.206 13.22C23.2065 13.22 23.207 13.22 23.2075 13.22C23.208 13.22 23.2085 13.22 23.209 13.22C23.2095 13.22 23.21 13.22 23.2105 13.22C23.211 13.22 23.2115 13.22 23.212 13.22C23.2125 13.22 23.213 13.22 23.2135 13.22C23.214 13.22 23.2145 13.22 23.215 13.22C23.2155 13.22 23.216 13.22 23.2165 13.22C23.217 13.22 23.2175 13.22 23.218 13.22C23.2185 13.22 23.219 13.22 23.2195 13.22C23.22 13.22 23.2205 13.22 23.221 13.22C23.2215 13.22 23.222 13.22 23.2225 13.22C23.223 13.22 23.2235 13.22 23.224 13.22C23.2245 13.22 23.225 13.22 23.2255 13.22C23.226 13.22 23.2265 13.22 23.227 13.22C23.2275 13.22 23.228 13.22 23.2285 13.22C23.229 13.22 23.2295 13.22 23.23 13.22C23.2305 13.22 23.231 13.22 23.2315 13.22C23.232 13.22 23.2325 13.22 23.233 13.22C23.2335 13.22 23.234 13.22 23.2345 13.22C23.235 13.22 23.2355 13.22 23.236 13.22C23.2365 13.22 23.237 13.22 23.2375 13.22C23.238 13.22 23.2385 13.22 23.239 13.22C23.2395 13.22 23.24 13.22 23.2405 13.22C23.241 13.22 23.2415 13.22 23.242 13.22C23.2425 13.22 23.243 13.22 23.2435 13.22C23.244 13.22 23.2445 13.22 23.245 13.22C23.2455 13.22 23.246 13.22 23.2465 13.22C23.247 13.22 23.2475 13.22 23.248 13.22C23.2485 13.22 23.249 13.22 23.2495 13.22C23.25 13.22 23.2505 13.22 23.251 13.22C23.2515 13.22 23.252 13.22 23.2525 13.22C23.253 13.22 23.2535 13.22 23.254 13.22C23.2545 13.22 23.255 13.22 23.2555 13.22C23.256 13.22 23.2565 13.22 23.257 13.22C23.2575 13.22 23.258 13.22 23.2585 13.22C23.259 13.22 23.2595 13.22 23.26 13.22C23.2605 13.22 23.261 13.22 23.2615 13.22C23.262 13.22 23.2625 13.22 23.263 13.22C23.2635 13.22 23.264 13.22 23.2645 13.22C23.265 13.22 23.2655 13.22 23.266 13.22C23.2665 13.22 23.267 13.22 23.2675 13.22C23.268 13.22 23.2685 13.22 23.269 13.22C23.2695 13.22 23.27 13.22 23.2705 13.22C23.271 13.22 23.2715 13.22 23.272 13.22C23.2725 13.22 23.273 13.22 23.2735 13.22C23.274 13.22 23.2745 13.22 23.275 13.22C23.2755 13.22 23.276 13.22 23.2765 13.22C23.277 13.22 23.2775 13.22 23.278 13.22C23.2785 13.22 23.279 13.22 23.2795 13.22C23.28 13.22 23.2805 13.22 23.281 13.22C23.2815 13.22 23.282 13.22 23.2825 13.22C23.283 13.22 23.2835 13.22 23.284 13.22C23.2845 13.22 23.285 13.22 23.2855 13.22C23.286 13.22 23.2865 13.22 23.287 13.22C23.2875 13.22 23.288 13.22 23.2885 13.22C23.289 13.22 23.2895 13.22 23.29 13.22C23.2905 13.22 23.291 13.22 23.2915 13.22C23.292 13.22 23.2925 13.22 23.293 13.22C23.2935 13.22 23.294 13.22 23.2945 13.22C23.295 13.22 23.2955 13.22 23.296 13.22C23.2965 13.22 23.297 13.22 23.2975 13.22C23.298 13.22 23.2985 13.22 23.299 13.22C23.2995 13.22 23.3 13.22 23.3005 13.22C23.301 13.22 23.3015 13.22 23.302 13.22C23.3025 13.22 23.303 13.22 23.3035 13.22C23.304 13.22 23.3045 13.22 23.305 13.22C23.3055 13.22 23.306 13.22 23.3065 13.22C23.307 13.22 23.3075 13.22 23.308 13.22C23.3085 13.22 23.309 13.22 23.3095 13.22C23.31 13.22 23.3105 13.22 23.311 13.22C23.3115 13.22 23.312 13.22 23.3125 13.22C23.313 13.22 23.3135 13.22 23.314 13.22C23.3145 13.22 23.315 13.22 23.3155 13.22C23.316 13.22 23.3165 13.22 23.317 13.22C23.3175 13.22 23.318 13.22 23.3185 13.22C23.319 13.22 23.3195 13.22 23.32 13.22C23.3205 13.22 23.321 13.22 23.3215 13.22C23.322 13.22 23.3225 13.22 23.323 13.22C23.3235 13.22 23.324 13.22 23.3245 13.22C23.325 13.22 23.3255 13.22 23.326 13.22C23.3265 13.22 23.327 13.22 23.3275 13.22C23.328 13.22 23.3285 13.22 23.329 13.22C23.3295 13.22 23.33 13.22 23.3305 13.22C23.331 13.22 23.3315 13.22 23.332 13.22C23.3325 13.22 23.333 13.22 23.3335 13.22C23.334 13.22 23.3345 13.22 23.335 13.22C23.3355 13.22 23.336 13.22 23.3365 13.22C23.337 13.22 23.3375 13.22 23.338 13.22C23.3385 13.22 23.339 13.22 23.3395 13.22C23.34 13.22 23.3405 13.22 23.341 13.22C23.3415 13.22 23.342 13.22 23.3425 13.22C23.343 13.22 23.3435 13.22 23.344 13.22C23.3445 13.22 23.345 13.22 23.3455 13.22C23.346 13.22 23.3465 13.22 23.347 13.22C23.3475 13.22 23.348 13.22 23.3485 13.22C23.349 13.22 23.3495 13.22 23.35 13.22C23.3505 13.22 23.351 13.22 23.3515 13.22C23.352 13.22 23.3525 13.22 23.353 13.22C23.3535 13.22 23.354 13.22 23.3545 13.22C23.355 13.22 23.3555 13.22 23.356 13.22C23.3565 13.22 23.357 13.22 23.3575 13.22C23.358 13.22 23.3585 13.22 23.359 13.22C23.3595 13.22 23.36 13.22 23.3605 13.22C23.361 13.22 23.3615 13.22 23.362 13.22C23.3625 13.22 23.363 13.22 23.3635 13.22C23.364 13.22 23.3645 13.22 23.365 13.22C23.3655 13.22 23.366 13.22 23.3665 13.22C23.367 13.22 23.3675 13.22 23.368 13.22C23.3685 13.22 23.369 13.22 23.3695 13.22C23.37 13.22 23.3705 13.22 23.371 13.22C23.3715 13.22 23.372 13.22 23.3725 13.22C23.373 13.22 23.3735 13.22 23.374 13.22C23.3745 13.22 23.375 13.22 23.3755 13.22C23.376 13.22 23.3765 13.22 23.377 13.22C23.3775 13.22 23.378 13.22 23.3785 13.22C23.379 13.22 23.3795 13.22 23.38 13.22C23.3805 13.22 23.381 13.22 23.3815 13.22C23.382 13.22 23.3825 13.22 23.383 13.22C23.3835 13.22 23.384 13.22 23.3845 13.22C23.385 13.22 23.3855 13.22 23.386 13.22C23.3865 13.22 23.387 13.22 23.3875 13.22C23.388 13.22 23.3885 13.22 23.389 13.22C23.3895 13.22 23.39 13.22 23.3905 13.22C23.391 13.22 23.3915 13.22 23.392 13.22C23.3925 13.22 23.393 13.22 23.3935 13.22C23.394 13.22 23.3945 13.22 23.395 13.22C23.3955 13.22 23.396 13.22 23.3965 13.22C23.397 13.22 23.3975 13.22 23.398 13.22C23.3985 13.22 23.399 13.22 23.3995 13.22C23.4 13.22 23.4005 13.22 23.401 13.22C23.4015 13.22 23.402 13.22 23.4025 13.22C23.403 13.22 23.4035 13.22 23.404 13.22C23.4045 13.22 23.405 13.22 23.4055 13.22C23.406 13.22 23.4065 13.22 23.407 13.22C23.4075 13.22 23.408 13.22 23.4085 13.22C23.409 13.22 23.4095 13.22 23.41 13.22C23.4105 13.22 23.411 13.22 23.4115 13.22C23.412 13.22 23.4125 13.22 23.413 13.22C23.4135 13.22 23.414 13.22 23.4145 13.22C23.415 13.22 23.4155 13.22 23.416 13.22C23.4165 13.22 23.417 13.22 23.4175 13.22C23.418 13.22 23.4185 13.22 23.419 13.22C23.4195 13.22 23.42 13.22 23.4205 13.22C23.421 13.22 23.4215 13.22 23.422 13.22C23.4225 13.22 23.423 13.22 23.4235 13.22C23.424 13.22 23.4245 13.22 23.425 13.22C23.4255 13.22 23.426 13.22 23.4265 13.22C23.427 13.22 23.4275 13.22 23.428 13.22C23.4285 13.22 23.429 13.22 23.4295 13.22C23.43 13.22 23.4305 13.22 23.431 13.22C23.4315 13.22 23.432 13.22 23.4325 13.22C23.433 13.22 23.4335 13.22 23.434 13.22C23.4345 13.22 23.435 13.22 23.4355 13.22C23.436 13.22 23.4365 13.22 23.437 13.22C23.4375 13.22 23.438 13.22 23.4385 13.22C23.439 13.22 23.4395 13.22 23.44 13.22V12.22ZM22.672 12.22C20.3678 12.22 18.4196 12.7974 16.8643 13.9868L17.4717 14.7812C18.8177 13.7519 20.5389 13.22 22.672 13.22V12.22ZM16.8661 13.9855C15.3312 15.1482 14.556 16.7261 14.556 18.672H15.556C15.556 17.0339 16.1888 15.7531 17.4699 14.7825L16.8661 13.9855ZM14.556 18.672C14.556 19.5708 14.6902 20.3525 14.986 20.9935L15.894 20.5745C15.6778 20.1062 15.556 19.4798 15.556 18.672H14.556ZM15.14 20.384L14.628 20.768L15.228 21.568L15.74 21.184L15.14 20.384ZM15.2966 20.8301C14.9569 20.4596 14.724 19.7448 14.724 18.544H13.724C13.724 19.8178 13.9604 20.8524 14.5594 21.5059L15.2966 20.8301ZM14.724 18.544C14.724 17.3914 15.1241 16.3053 15.957 15.2742L15.179 14.6458C14.2199 15.8333 13.724 17.1365 13.724 18.544H14.724ZM15.9627 15.267C16.7923 14.2004 17.8519 13.4939 19.1556 13.1384L18.8924 12.1736C17.3801 12.5861 16.1357 13.4156 15.1733 14.653L15.9627 15.267ZM19.1325 13.1441C19.4993 13.0626 19.9761 12.9793 20.5667 12.895L20.4253 11.905C19.8212 11.9913 19.3167 12.0787 18.9155 12.1679L19.1325 13.1441ZM20.996 12.4V12.272H19.996V12.4H20.996ZM20.4743 11.7725L19.0023 11.8365L19.0457 12.8355L20.5177 12.7715L20.4743 11.7725ZM19.086 11.8399C15.0459 11.3348 11.802 10.2031 9.32673 8.47038L8.75327 9.28961C11.398 11.1409 14.8101 12.3132 18.962 12.8321L19.086 11.8399ZM9.33126 8.47359C6.91461 6.74165 5.7 4.27591 5.7 1.008H4.7C4.7 4.56675 6.0454 7.34901 8.74874 9.28641L9.33126 8.47359ZM5.24152 1.50627L6.00952 1.44227L5.92648 0.445724L5.15848 0.509723L5.24152 1.50627ZM5.468 0.943996C5.468 2.99403 5.98195 4.80099 7.02586 6.34415L7.85414 5.78384C6.93538 4.42567 6.468 2.8193 6.468 0.943996H5.468ZM7.0298 6.3499C8.06575 7.83625 9.48041 8.99953 11.2575 9.84364L11.6865 8.94036C10.0503 8.16313 8.77692 7.10775 7.8502 5.7781L7.0298 6.3499ZM11.258 9.84387C14.5743 11.4148 18.4835 12.279 22.9728 12.4516L23.0112 11.4524C18.6258 11.2837 14.855 10.4412 11.686 8.94013L11.258 9.84387ZM22.9662 12.4513L26.6782 12.6433L26.7298 11.6447L23.0178 11.4527L22.9662 12.4513ZM26.204 12.144V13.424H27.204V12.144H26.204ZM26.204 13.424C26.204 14.3887 26.4915 15.9794 27.0349 18.1533C27.5824 20.343 28.4017 23.1696 29.4911 26.6301L30.4449 26.3299C29.3583 22.8784 28.5456 20.073 28.0051 17.9107C27.4606 15.7326 27.204 14.2513 27.204 13.424H26.204ZM29.4917 26.6322L31.4757 32.8402L32.4283 32.5358L30.4443 26.3278L29.4917 26.6322ZM31.4758 32.8405C33.904 40.4232 35.1 46.2081 35.1 50.224H36.1C36.1 46.0479 34.864 40.1421 32.4282 32.5355L31.4758 32.8405ZM35.1 50.224V50.48H36.1V50.224H35.1ZM36.0605 50.6748L36.7645 49.0108L35.8435 48.6212L35.1395 50.2852L36.0605 50.6748ZM36.7636 49.013C37.0618 48.3171 37.188 47.2708 37.188 45.936H36.188C36.188 47.2466 36.0582 48.1202 35.8444 48.619L36.7636 49.013ZM37.188 45.936C37.188 42.4356 35.862 36.5863 33.2603 28.4399L32.3077 28.7441C34.9113 36.8964 36.188 42.6097 36.188 45.936H37.188ZM33.2603 28.4398L31.2763 22.2318L30.3237 22.5362L32.3077 28.7442L33.2603 28.4398ZM31.274 22.2249C30.2724 19.2415 29.5455 16.9112 29.0907 15.2295C28.8631 14.3879 28.7059 13.7172 28.6163 13.2125C28.5218 12.6808 28.5171 12.4068 28.5373 12.311L27.5587 12.105C27.4936 12.4145 27.5395 12.8685 27.6317 13.3875C27.7287 13.9335 27.8943 14.6361 28.1253 15.4905C28.5879 17.2008 29.3222 19.5531 30.326 22.5431L31.274 22.2249ZM28.048 12.708H28.88V11.708H28.048V12.708ZM28.38 12.208C28.38 12.4464 28.4543 12.8376 28.5693 13.3265C28.6891 13.8358 28.8674 14.5067 29.103 15.3365C29.5744 16.997 30.2801 19.3119 31.2193 22.2789L32.1727 21.9771C31.2345 19.0134 30.5323 16.7096 30.065 15.0635C29.8312 14.2399 29.6575 13.5855 29.5427 13.0975C29.4231 12.589 29.38 12.3109 29.38 12.208H28.38ZM31.2197 22.2802L33.2037 28.4882L34.1563 28.1838L32.1723 21.9758L31.2197 22.2802ZM33.2036 28.4879C35.72 36.3781 36.956 42.0949 36.956 45.68H37.956C37.956 41.9265 36.6747 36.0805 34.1564 28.1841L33.2036 28.4879ZM36.956 45.68V45.936H37.956V45.68H36.956ZM37.9175 46.1284L46.4295 25.7124L45.5065 25.3276L36.9945 45.7436L37.9175 46.1284ZM46.4313 25.708C49.3723 18.462 51.1535 13.8081 51.7592 11.7747L50.8008 11.4893C50.2118 13.4666 48.4517 18.0713 45.5047 25.332L46.4313 25.708ZM51.2385 12.1303L52.0065 12.1943L52.0895 11.1977L51.3215 11.1337L51.2385 12.1303ZM51.548 11.696V47.152H52.548V11.696H51.548ZM54.212 47.152V13.232H53.212V47.152H54.212ZM54.212 13.232C54.212 10.7163 54.6763 8.94822 55.5183 7.83819L54.7217 7.23381C53.6864 8.59845 53.212 10.6277 53.212 13.232H54.212ZM55.5232 7.83168C56.332 6.72874 57.7461 6.116 59.92 6.116V5.116C57.5712 5.116 55.7853 5.78326 54.7168 7.24032L55.5232 7.83168ZM59.92 6.116C61.0391 6.116 61.9414 6.24085 62.6419 6.47434L62.9581 5.52565C62.1226 5.24714 61.1049 5.116 59.92 5.116V6.116ZM62.3097 5.90194L62.1817 6.54194L63.1623 6.73806L63.2903 6.09805L62.3097 5.90194ZM62.7828 6.15243C61.8165 5.93282 60.9253 5.82 60.112 5.82V6.82C60.8347 6.82 61.6502 6.92051 62.5612 7.12757L62.7828 6.15243ZM60.112 5.82C57.9127 5.82 56.2549 6.3908 55.3489 7.69939L56.1711 8.2686C56.8011 7.35853 58.0447 6.82 60.112 6.82V5.82ZM55.3489 7.69939C54.4934 8.93516 54.108 10.8098 54.108 13.232H55.108C55.108 10.8755 55.4906 9.2515 56.1711 8.2686L55.3489 7.69939ZM54.108 13.232V47.152H55.108V13.232H54.108ZM54.108 47.152C54.108 49.5742 54.4934 51.4488 55.3489 52.6846L56.1711 52.1154C55.4906 51.1325 55.108 49.5085 55.108 47.152H54.108ZM55.3489 52.6846C56.2549 53.9932 57.9127 54.564 60.112 54.564V53.564C58.0447 53.564 56.8011 53.0255 56.1711 52.1154L55.3489 52.6846ZM60.112 54.564C60.9253 54.564 61.8165 54.4512 62.7828 54.2316L62.5612 53.2564C61.6502 53.4635 60.8347 53.564 60.112 53.564V54.564ZM62.1817 53.8421L62.3097 54.4821L63.2903 54.2859L63.1623 53.6459L62.1817 53.8421ZM62.6419 53.9097C61.9414 54.1431 61.0391 54.268 59.92 54.268V55.268C61.1049 55.268 62.1226 55.1369 62.9581 54.8583L62.6419 53.9097ZM59.92 54.268C57.7404 54.268 56.325 53.6731 55.5183 52.6098L54.7217 53.2142C55.7923 54.6255 57.5769 55.268 59.92 55.268V54.268ZM55.5232 52.6163C54.6755 51.4603 54.212 49.6656 54.212 47.152H53.212C53.212 49.7584 53.6872 51.8037 54.7168 53.2077L55.5232 52.6163Z" fill="#957902"/>
</g>
<defs>
<filter id="filter0_d_91_3" x="0.112061" y="0.94397" width="66.688" height="72.296" filterUnits="userSpaceOnUse" color-interpolation-filters="sRGB">
<feFlood flood-opacity="0" result="BackgroundImageFix"/>
<feColorMatrix in="SourceAlpha" type="matrix" values="0 0 0 0 0 0 0 0 0 0 0 0 0 0 0 0 0 0 127 0" result="hardAlpha"/>
<feOffset dy="5"/>
<feGaussianBlur stdDeviation="2"/>
<feComposite in2="hardAlpha" operator="out"/>
<feColorMatrix type="matrix" values="0 0 0 0 0 0 0 0 0 0 0 0 0 0 0 0 0 0 0.25 0"/>
<feBlend mode="normal" in2="BackgroundImageFix" result="effect1_dropShadow_91_3"/>
<feBlend mode="normal" in="SourceGraphic" in2="effect1_dropShadow_91_3" result="shape"/>
</filter>
</defs>
</svg>
